<?xml version="1.0" encoding="UTF-8"?> <svg xmlns="http://www.w3.org/2000/svg" xmlns:xlink="http://www.w3.org/1999/xlink" version="1.1" x="0px" y="0px" viewBox="0 0 298.03 615.1" style="enable-background:new 0 0 298.03 615.1;" xml:space="preserve"> <style type="text/css"> .st0{fill:#FFFFFF;stroke:#B7985A;stroke-miterlimit:10;} .st1{fill:#FFFFFF;stroke:#B7985A;stroke-width:0.75;stroke-miterlimit:10;} .st2{fill:#FFFFFF;stroke:#B7985A;stroke-width:0.5;stroke-miterlimit:10;} .st3{fill:none;stroke:#B7985A;stroke-linecap:round;stroke-linejoin:round;stroke-miterlimit:10;} .st4{fill:none;stroke:#B7985A;stroke-miterlimit:10;} .st5{fill:none;stroke:#B7985A;stroke-width:0.75;stroke-linecap:round;stroke-linejoin:round;stroke-miterlimit:10;} .st6{fill:none;stroke:#B7985A;stroke-width:0.5;stroke-linecap:round;stroke-linejoin:round;stroke-miterlimit:10;} .st7{fill:#FFFFFF;stroke:#000000;stroke-width:0.25;stroke-miterlimit:10;} .st8{fill:#FFFFFF;stroke:#FFFFFF;stroke-width:0.25;stroke-miterlimit:10;} .st9{fill:#B7985A;stroke:#B7985A;stroke-width:0.25;stroke-miterlimit:10;} .st10{fill:#B7985A;stroke:#B7985A;stroke-width:0.75;stroke-miterlimit:10;} .st11{fill:none;stroke:#B7985A;stroke-width:0.75;stroke-miterlimit:10;} .st12{fill:#FFFFFF;stroke:#B7985A;stroke-width:10;stroke-miterlimit:10;} .st13{fill:none;stroke:#000000;stroke-miterlimit:10;} .st14{fill:#FFFFFF;stroke:#000000;stroke-miterlimit:10;} .st15{fill:#FFFFFF;} .st16{fill:#434560;stroke:#FFFFFF;stroke-width:0.25;stroke-miterlimit:10;} .st17{fill:#7174A0;stroke:#3C3C3B;stroke-width:0.25;stroke-miterlimit:10;} .st18{fill:#A86435;} .st19{fill:#51879E;stroke:#683B11;stroke-width:0.5;stroke-miterlimit:10;} .st20{fill:#1D1D1B;} .st21{fill:url(#SVGID_1_);stroke:#FFFFFF;stroke-width:0.1171;stroke-miterlimit:10;stroke-opacity:0.7;} .st22{fill:url(#SVGID_2_);stroke:#FFFFFF;stroke-width:0.1171;stroke-miterlimit:10;stroke-opacity:0.7;} .st23{fill:url(#SVGID_3_);stroke:#FFFFFF;stroke-width:0.1171;stroke-miterlimit:10;} .st24{fill:url(#SVGID_4_);stroke:#FFFFFF;stroke-width:0.1171;stroke-miterlimit:10;} .st25{fill:#2F3C1B;} .st26{fill:url(#SVGID_5_);} .st27{fill:url(#SVGID_6_);} .st28{stroke:#5CFF65;stroke-miterlimit:10;} .st29{fill:#B7985A;} .st30{fill:#2C2D19;stroke:#FFFFFF;stroke-width:0.2269;stroke-miterlimit:10;} .st31{fill:#B7985A;stroke:#2C2D19;stroke-width:0.25;stroke-miterlimit:10;} </style> <g id="Слой_3_1_"> <g> <g> <polygon class="st0" points="149.13,596.4 236.92,568.3 215.35,532.4 149.61,522 82.85,532.4 61.32,568.3 "></polygon> <ellipse class="st0" cx="149.12" cy="596.4" rx="30.8" ry="14.8"></ellipse> <ellipse class="st1" cx="236.74" cy="568.29" rx="24.5" ry="11"></ellipse> <ellipse class="st1" cx="61.32" cy="568.29" rx="24.5" ry="11"></ellipse> <ellipse class="st2" cx="82.83" cy="532.4" rx="18.07" ry="5.38"></ellipse> <ellipse class="st2" cx="215.38" cy="532.4" rx="18.07" ry="5.38"></ellipse> <polyline class="st0" points="99.05,542.55 120.26,561.7 177.87,561.7 199.01,542.55 169.37,528.3 128.76,528.3 99.05,542.55 "></polyline> </g> <g> <path class="st3" d="M149.01,561.7l0.11,34.7l-27.2-26.54c-0.95-0.93-1.5-2.21-1.51-3.54l-0.04-4.62h57.48l-0.04,4.62 c-0.01,1.33-0.55,2.61-1.51,3.54l-27.2,26.54"></path> <line class="st4" x1="174.76" y1="588.2" x2="216.86" y2="574.72"></line> <path class="st3" d="M149.13,596.4l12-27.03c0.28-0.64,0.43-1.33,0.43-2.03v-5.64"></path> <path class="st3" d="M149.07,596.4l-12-27.03c-0.28-0.64-0.43-1.33-0.43-2.03v-5.64"></path> <line class="st4" x1="123.49" y1="588.19" x2="81.26" y2="574.68"></line> <path class="st5" d="M199.01,542.55l-0.01,2.66c-0.01,1.86,1.01,3.57,2.65,4.44l35.09,18.64l-53.88,0.1 c-2.78,0-5.03-2.26-5.01-5.04l0.01-1.65L199.01,542.55"></path> <path class="st5" d="M188.74,551.87l-0.04,2.24c-0.05,2.41,1.63,4.51,3.99,4.99l43.79,9.05l-39.36-13.69 c-2.01-0.7-3.36-2.59-3.36-4.72v-2.42"></path> <path class="st5" d="M236.47,568.15l-48.43-4.37c-2.64-0.24-4.63-2.49-4.55-5.14l0.07-2.09"></path> <path class="st5" d="M109.33,551.87l0.04,2.24c0.05,2.41-1.63,4.51-3.99,4.99l-43.79,9.05l39.36-13.69 c2.01-0.7,3.36-2.59,3.36-4.72v-2.42"></path> <path class="st5" d="M61.6,568.15l48.43-4.37c2.64-0.24,4.63-2.49,4.55-5.14l-0.07-2.09"></path> <line class="st6" x1="67.7" y1="557.67" x2="79.68" y2="537.7"></line> <line class="st6" x1="230.37" y1="557.67" x2="218.56" y2="537.7"></line> <path class="st5" d="M99.05,542.55l0.01,2.66c0.01,1.86-1.01,3.57-2.65,4.44l-35.09,18.64l53.88,0.1c2.78,0,5.03-2.26,5.01-5.04 l-0.01-1.65L99.05,542.55"></path> <path class="st6" d="M120.21,532.4H82.83l12.34,11.92c1.49,1.44,3.98,0.31,3.88-1.77l0,0"></path> <line class="st6" x1="82.83" y1="532.4" x2="107.37" y2="538.56"></line> <line class="st6" x1="82.85" y1="532.4" x2="113.7" y2="535.53"></line> <line class="st6" x1="82.85" y1="532.4" x2="101.24" y2="541.5"></line> <line class="st6" x1="128.76" y1="528.3" x2="99.05" y2="542.55"></line> <line class="st6" x1="215.38" y1="532.4" x2="190.84" y2="538.56"></line> <line class="st6" x1="215.36" y1="532.4" x2="184.52" y2="535.53"></line> <line class="st6" x1="215.36" y1="532.4" x2="196.97" y2="541.5"></line> <path class="st6" d="M215.36,532.22l-12.28,12.04c-1.51,1.48-4.07,0.41-4.07-1.71v0"></path> <line class="st6" x1="215.1" y1="532.22" x2="177.9" y2="532.4"></line> <polyline class="st6" points="128.76,528.3 169.45,528.3 199.16,542.55 "></polyline> <polyline class="st6" points="199.16,530.03 149.61,522 98.85,529.91 "></polyline> </g> <polyline class="st6" points="139.98,546.8 149.01,561.7 158.16,546.68 "></polyline> <polyline class="st6" points="158.16,546.68 199.01,542.55 161.56,538.63 "></polyline> <polyline class="st6" points="139.98,546.8 99.05,542.55 137.51,538.3 "></polyline> </g> <g> <polygon class="st7" points="137.36,231.6 161.56,231.6 161.56,543.96 137.36,543.51 "></polygon> <polygon class="st8" points="162.53,539.19 148.68,533.96 136.94,538.88 136.94,543.96 162.22,544.35 "></polygon> <path class="st7" d="M137.36,300.52c0,3.21-5.5,4.16-6.13,6.57c-0.23,0.87-0.36,3.01,0.7,4.18c6.64,2.5,22.99,3.35,29.62,1.16 c0-3.65-0.06-7.49,0-11.2C150.71,303.76,142.06,301.77,137.36,300.52z"></path> <path class="st7" d="M136.53,312.49c-0.69,3.01-4.66,2.37-5.3,4.78c-0.23,0.87-0.36,3.01,0.7,4.18 c5.71,1.87,18.18,3.86,29.62,1.08c0-4.01-0.04-5.82,0-10.01C152.34,314.96,141.25,313.19,136.53,312.49z"></path> <line class="st3" x1="151.59" y1="324.65" x2="151.59" y2="541.5"></line> <line class="st3" x1="155.36" y1="324.65" x2="155.36" y2="541.5"></line> <g id="КРАСИМ_15_"> <path class="st9" d="M131.52,316.63c10.21,2.67,19.92,3.6,30.02,1.28C154,319.94,145.53,320.94,131.52,316.63z"></path> <path class="st9" d="M131.74,306.24c11.35,3.02,21.38,3.49,29.8,1.31C151.12,309.85,135.42,307.5,131.74,306.24z"></path> </g> </g> <g> <path class="st7" d="M205.34,15.94c0,59.86,71.36,71.73,75.76,158.06c5.83,135.82-127.34,102.19-132.24,71.3 c83.55-5.18,95.02-71.71,95.55-81.75C253.41,88.76,187.41,80.2,205.34,15.94z"></path> <path class="st7" d="M92.36,15.94C92.36,75.8,21,87.67,16.6,174c-5.83,135.82,127.34,102.19,132.24,71.3 c-83.55-5.18-95.02-71.71-95.55-81.75C44.29,88.76,110.29,80.2,92.36,15.94z"></path> <path class="st7" d="M149.12,1.88c3.14,20.88,6.21,41.82,15.89,56.41c3.23,4.87,12.26,10.96,21.69,17 c25.14,11.86,47.51,42.36,47.51,75.11c0,46.25-35.23,85.03-85.2,85.66c-44.46,0.56-83.44-38.67-84.1-85.66 c-0.55-38.58,28.21-66.5,47.28-75.02c8.61-5.99,17.1-11.99,20.38-17.03C142.69,42.82,146.37,22.7,149.12,1.88z"></path> <g id="КРАСИМ_14_"> <path class="st9" d="M262.46,153.4c-5.06-30.36-30.61-56.94-42.29-74.15c-18.55-27.34-17.27-53.51-14.83-63.31 c-2.54,10.51-3.71,36.85,16.3,62.09C237.02,97.41,282.28,141.29,262.46,153.4z"></path> <path class="st9" d="M35.2,153.55c5.06-30.36,30.61-56.94,42.29-74.15c18.55-27.34,17.27-53.51,14.83-63.31 c2.54,10.51,3.71,36.85-16.3,62.09C60.65,97.56,15.38,141.44,35.2,153.55z"></path> </g> <path class="st1" d="M297.76,147.94c-11.26,5.16-15.59,16.15-15.8,23.16c-1.67,54.9-8.55,63.36-32.79,95.84 c-20.41,27.35-67.86,8.99-72.85,0.84c82.18-18.58,76.77-86.26,81.59-106.97C262.86,139.54,286.41,136.88,297.76,147.94z"></path> <path class="st1" d="M0.25,147.74c11.26,5.16,15.59,16.15,15.8,23.16c1.67,54.9,8.55,63.36,32.79,95.84 c20.41,27.35,67.86,8.99,72.85,0.84C39.5,249,44.91,181.32,40.1,160.61C35.15,139.33,11.6,136.68,0.25,147.74z"></path> <path class="st2" d="M126.9,233.07c-3.62-0.95-0.75,7.17-5.38,7.89c-1.87,3.38-8.74,10.96-5.14,31.34 c4.85,7.42,11.34,18.02,20.82,28.22c5.97,2.16,21.24,3.34,24.9-2.13c8.52-9.68,15.02-20.06,18.83-26.09 c3.61-19.42-2.94-27.26-5.06-31.34c-5.14-2.01-0.61-8.82-4.42-7.96C161.95,235.13,137.61,235.87,126.9,233.07z"></path> <path class="st1" d="M244.77,271.8c-23.13-2.64-28.83-24.63-40.3-24.54c-9.09,0.07-18.71,7.15-28.14,20.52 C182.96,277.18,224.59,290.71,244.77,271.8z"></path> <path class="st1" d="M53.31,271.64c23.13-2.64,28.83-24.63,40.3-24.54c9.09,0.07,18.71,7.15,28.14,20.52 C115.12,277.02,73.49,290.55,53.31,271.64z"></path> <g id="КРАСИМ_13_"> <path class="st9" d="M139.31,301.15c-3.71-4.85-15.68-24.05-16.57-29.35c-2.18-12.88-1.96-27.73,2.34-30.04 c2.56-1.9,2.58-6.1,3.11-7.2c-1.46,1.5-0.19,5.67-3.51,7.17c-4.27,3.57-6,23.27-1.59,32.85 C125.3,279.38,135.78,296.43,139.31,301.15z"></path> <path class="st9" d="M159.12,300.5c3.71-4.85,15.07-23.19,15.97-28.49c2.18-12.88,1.96-27.73-2.34-30.04 c-2.56-1.9-2.58-6.1-3.11-7.2c1.46,1.5,0.18,5.67,3.51,7.17c4.27,3.57,6,23.27,1.59,32.85 C172.53,279.58,162.65,295.78,159.12,300.5z"></path> <path class="st9" d="M143.14,301.88c-3.71-4.85-12.45-23.37-13.34-28.67c-2.18-12.88-1.96-27.73,2.34-30.04 c2.56-1.9,2.58-6.1,3.11-7.2c-1.46,1.5-0.18,5.67-3.51,7.17c-4.27,3.57-6,23.27-1.59,32.85 C132.36,280.79,139.61,297.16,143.14,301.88z"></path> <path class="st9" d="M155.82,300.52c3.71-4.85,11.81-22.01,12.71-27.31c2.18-12.88,1.96-27.73-2.34-30.04 c-2.56-1.9-2.58-6.1-3.11-7.2c1.46,1.5,0.19,5.67,3.51,7.17c4.27,3.57,6,23.27,1.59,32.85 C165.96,280.79,159.35,295.8,155.82,300.52z"></path> <path class="st9" d="M146.64,302.24c-3.71-4.85-8.03-18.69-8.93-23.99c-2.18-12.88-0.5-30.81,3.8-33.13 c2.56-1.9,3.09-7.05,3.61-8.14c-1.46,1.5-0.56,6.64-3.88,8.14c-4.27,3.57-5.97,22.18-4.12,33 C138.02,283.33,143.11,297.52,146.64,302.24z"></path> <path class="st9" d="M154.27,300.52c3.71-4.85,6.45-16.98,7.35-22.28c2.18-12.88,0.5-30.81-3.8-33.13 c-2.56-1.9-3.09-7.05-3.61-8.14c1.46,1.5,0.56,6.64,3.88,8.14c4.27,3.57,5.97,22.18,4.12,33 C161.31,283.33,157.8,295.8,154.27,300.52z"></path> <path class="st10" d="M187,261.89c4.99,1.09,8.53,12.41,15.24,16.24C195.53,275.95,190.75,263.92,187,261.89z"></path> <path class="st10" d="M197.87,257.65c4.99,1.09,13.25,16.23,19.96,20.06C211.12,275.53,201.62,259.68,197.87,257.65z"></path> <path class="st10" d="M214.12,260.84c3.47,1.12,12.82,15.92,19.72,14.48C226.66,275.32,217.59,262.94,214.12,260.84z"></path> <path class="st10" d="M111.44,261.63c-4.99,1.09-8.53,12.41-15.24,16.24C102.9,275.69,107.68,263.66,111.44,261.63z"></path> <path class="st10" d="M100.57,257.39c-4.99,1.09-13.25,16.23-19.96,20.06C87.32,275.27,96.81,259.42,100.57,257.39z"></path> <path class="st10" d="M84.32,260.58c-3.47,1.12-12.82,15.92-19.72,14.48C71.77,275.06,80.85,262.68,84.32,260.58z"></path> <path id="КРАСИМ_12_" class="st11" d="M255.42,178.5c6.02,64.3-15.42,79.19-21.05,90"></path> <path id="КРАСИМ_11_" class="st11" d="M221.86,259.7c9.76-6.7,36.64-45.32,33.55-81.2"></path> <path id="КРАСИМ_10_" class="st9" d="M277.16,167.6c0.13-12.6,4.5-24.75,15.09-23.54 C280.79,140.26,274.32,153.6,277.16,167.6z"></path> <path id="КРАСИМ_9_" class="st9" d="M272.4,170.24c-5.7-11.62-7.16-23.72,2.74-27.91 C263.19,144.14,263.51,159.06,272.4,170.24z"></path> <path id="КРАСИМ_8_" class="st9" d="M269.74,174.82c-9.71-8.03-12.03-17.92-5.47-25.94 C255.68,156.15,257.07,168.22,269.74,174.82z"></path> <path id="КРАСИМ_7_" class="st11" d="M42.57,178.11c-6.02,64.3,15.1,79.73,20.74,90.54"></path> <path id="КРАСИМ_6_" class="st11" d="M75.8,259.85c-9.76-6.7-36.32-45.86-33.24-81.74"></path> <path id="КРАСИМ_5_" class="st9" d="M20.5,167.75c-0.13-12.6-4.5-24.75-15.09-23.54C16.88,140.41,23.34,153.75,20.5,167.75 z"></path> <path id="КРАСИМ_4_" class="st9" d="M25.27,170.39c5.7-11.62,7.16-23.72-2.74-27.91 C34.48,144.29,34.15,159.21,25.27,170.39z"></path> <path id="КРАСИМ_3_" class="st9" d="M27.93,174.97c9.71-8.03,12.52-18.35,5.97-26.37 C42.49,155.88,40.6,168.37,27.93,174.97z"></path> <path id="КРАСИМ_2_" class="st9" d="M168.06,68.94c-22.31,11.26-18.33-42.93-18.81-66.15 C150.21,43.02,155.05,65.19,168.06,68.94z"></path> <path id="КРАСИМ_1_" class="st9" d="M130.17,68.94c22.31,11.26,18.33-42.93,18.81-66.15 C148.02,43.02,143.18,65.19,130.17,68.94z"></path> </g> </g> </g> <g id="Слой_2"> <circle id="КРАСИМ" class="st12" cx="149.5" cy="151.4" r="79.82"></circle> <g> <path class="st13" d="M125.88,191.96c-1.38,3.11-2.14,6.55-2.14,10.16c0,13.86,11.24,25.1,25.1,25.1s25.1-11.24,25.1-25.1 c0-3.24-0.61-6.34-1.73-9.19 M155.73,209.53c4.2,3.15,9.41,5.02,15.07,5.02c13.86,0,25.1-11.24,25.1-25.1 c0-7.88-3.63-14.91-9.3-19.51 M145.9,211.27c-0.14,1.08-0.21,2.17-0.21,3.29c0,5.2,1.58,10.03,4.29,14.04 M195.9,214.56 c0-0.8-0.04-1.58-0.11-2.36c-1.11-11.93-10.58-21.44-22.49-22.62 M124.64,189.55c-11.82,1.05-21.28,10.29-22.68,22 c-0.12,0.99-0.18,1.99-0.18,3 M148.07,228.05c2.49-3.9,3.93-8.53,3.93-13.5c0-0.95-0.05-1.88-0.15-2.8 M108.03,172.89 c-3.88,4.42-6.24,10.22-6.24,16.56c0,13.86,11.24,25.1,25.1,25.1c5.91,0,11.35-2.05,15.64-5.47 M167.12,201 c0,9.8,4.32,17.31,11,21.82 M214.99,191.53c-3.97-8.64-12.7-14.63-22.82-14.63c-1.3,0-2.58,0.1-3.82,0.29 M189.12,166.9 c1.22,12.72,11.94,22.67,24.99,22.67c1.07,0,2.12-0.07,3.16-0.2 M226.7,142.75c-3.7-2.15-8-3.38-12.59-3.38 c-8.54,0-16.08,4.26-20.62,10.77 M172.43,192.43c4.6,5.83,11.73,9.58,19.73,9.58c16.54,0,25.1-12.58,25.1-25.1 c0-12.25-8.77-22.45-20.37-24.66 M108.55,176.7c-9.87-1.44-20.07,3.13-25.37,12.3c-0.58,1-1.08,2.03-1.51,3.07 M119.03,222.33 c3.04-2.06,5.68-4.83,7.64-8.22c2.48-4.3,3.55-9.02,3.34-13.64 M187.16,107.86c4.92-4.2,8.19-10.26,8.73-17.09 c0.05-0.66,0.08-1.33,0.08-2 M149.98,74.83c-2.67,3.99-4.22,8.78-4.22,13.94c0,2.73,0.44,5.36,1.24,7.82 M193.84,126.28 c9.96-0.4,18.42-6.6,22.11-15.31 M178.27,80.73c-6.24,4.44-10.36,11.67-10.55,19.87 M174.02,101.2c0-13.86-11.24-25.1-25.1-25.1 S122.98,86,123.6,102.47 M193.61,124.5c1.51-3.23,2.36-6.83,2.36-10.63c0-13.86-11.24-25.1-25.1-25.1 c-7.77,0-14.72,3.53-19.33,9.08 M193.43,153.01c4.51,6.68,12.15,11.07,20.82,11.07c4.33,0,8.4-1.1,11.96-3.02 M217.41,114.07 c-1.03-0.13-2.09-0.2-3.16-0.2c-8.76,0-16.48,4.49-20.97,11.29 M188.34,176.2c1.29,0.2,2.61,0.31,3.96,0.31 c13.86,0,25.1-11.24,25.1-25.1c0-13.47-10.61-24.46-23.93-25.08c-0.39-0.02-0.78-0.03-1.18-0.03 M239.35,113.87 M193.11,127.43 c4.47,6.95,12.26,11.55,21.13,11.55c3.63,0,7.07-0.77,10.18-2.15 M199.14,93.82c-6.07,4.58-10,11.86-10,20.05 c0,2.2,0.28,4.34,0.82,6.38 M195.36,151.22c12.42-1.51,22.05-12.09,22.05-24.92c0-13.86-11.24-25.1-25.1-25.1 c-6.32,0-12.09,2.33-16.5,6.19 M104.99,150.89c-2.12-3.55-5.15-6.63-8.99-8.84c-7.26-4.19-15.74-4.34-22.85-1.16 M82.67,188.89 c8.94,0.27,17.73-4.26,22.52-12.55c0.68-1.18,1.26-2.39,1.73-3.63 M104.8,125.24c-2.11-3.42-5.08-6.39-8.81-8.54 c-4.35-2.51-9.13-3.57-13.8-3.34 M70.89,160.18c11.2,6.47,25.31,3.32,32.78-6.88 M104.83,125.89 c-8.54,0.13-16.81,4.62-21.39,12.55c-6.93,12.01-2.82,27.36,9.19,34.29c5.19,3,11.02,3.93,16.51,3.05 M102.02,151.44 c-7.51,0.96-14.5,5.29-18.58,12.35c-6.93,12.01-2.82,27.36,9.19,34.29c11.26,6.5,25.45,3.29,32.9-7.03 M130.31,100.6 c-0.14-8.53-4.63-16.77-12.55-21.35 M82.98,112.67c2.13,4.07,5.4,7.6,9.67,10.06c3.84,2.21,8.01,3.3,12.15,3.36 M150.76,96.15 c2.42-7.22,1.37-15.05-2.55-21.32 M102.05,91.44c0.81,6.21,3.94,12.64,9.01,16.77 M122.98,108.68c-1.57-1.61-3.39-3.03-5.43-4.21 c-12.01-6.93-27.36-2.82-34.29,9.19s-2.82,27.36,9.19,34.29c3.47,2,7.22,3.08,10.96,3.32 M146.65,97.97 c-1.91-2.42-4.31-4.53-7.15-6.17c-12.01-6.93-27.36-2.82-34.29,9.19c-4.36,7.54-4.35,16.41-0.77,23.68 M113.29,117.65 c-3.26,2.09-6.08,4.98-8.15,8.56c-4.54,7.86-4.34,17.14-0.31,24.57 M173.3,188.81c7.59-0.9,14.68-5.25,18.8-12.38 c4.1-7.11,4.34-15.39,1.35-22.4 M103.98,153.23c-5.57,11.7-1.29,25.91,10.13,32.5c3.45,1.99,7.18,3.07,10.9,3.31"></path> <path class="st13" d="M72.37,154.18c8.35,4.08,14.11,12.65,14.11,22.57c0,4.65-1.26,9.01-3.47,12.74"></path> <path class="st13" d="M83.39,113.6c13.86,0,25.1-11.24,25.1-25.1"></path> <path class="st13" d="M136.67,205.27c-7.71,4.28-12.94,12.51-12.94,21.96"></path> <path class="st13" d="M173.95,227.23c0-9.3-5.05-17.42-12.57-21.75"></path> <path class="st13" d="M226.7,153.6c-9.23,3.71-15.74,12.75-15.74,23.3c0,5.14,1.54,9.91,4.19,13.89"></path> <path class="st13" d="M214.11,189.58c-13.86,0-24.84,10.89-25.1,25.84"></path> <path class="st13" d="M203.9,205c-3.49-1.84-7.46-2.87-11.68-2.87c-13.86,0-25.1,11.24-25.1,25.1"></path> <path class="st13" d="M185.24,219.41c-3.02-2.22-6.55-3.83-10.4-4.63c-11.25-2.08-23.18,4.13-27.64,14.28"></path> <path class="st13" d="M108.23,216.11c0.64-9.27-3.91-18.54-12.5-23.5c-4.43-2.56-9.31-3.61-14.06-3.32"></path> <path class="st13" d="M61.44,176.45"></path> <path class="st13" d="M104.93,201.55c6.93-12.01,2.82-27.36-9.19-34.29c-6.81-3.93-14.71-4.31-21.52-1.71"></path> <path class="st13" d="M130.01,225.8c-0.37-8.27-4.83-16.19-12.53-20.63c-7.81-4.51-17.04-4.34-24.44-0.37"></path> <path class="st13" d="M149.22,228.55c-1.99-4.17-5.09-7.81-9.04-10.33c-7.34-4.69-16.93-5.25-24.74-1.37 c-1.16,0.57-2.27,1.24-3.32,1.98"></path> <path class="st13" d="M167.71,76.09c0,13.86,11.24,25.1,25.1,25.1c4.17,0,8.1-1.02,11.56-2.81"></path> <path class="st13" d="M148.58,75.24c4.18,8.04,12.59,13.53,22.28,13.53c5.37,0,10.35-1.69,14.43-4.56"></path> <path class="st13" d="M164.07,96.11c6.04-4.58,9.95-11.84,9.95-20.01"></path> <path class="st13" d="M123.81,76.09c0,8.35,4.08,15.75,10.35,20.31"></path> <path class="st13" d="M189.08,87.67c-0.21,14.76,11.24,26.08,25.1,26.08"></path> <path class="st13" d="M215.26,112.45c-2.63,3.97-4.16,8.73-4.16,13.85c0,10.71,6.71,19.86,16.16,23.46"></path> <path class="st13" d="M223.15,129.96c-7.22,4.41-12.05,12.36-12.05,21.45c0,8.92,4.66,16.76,11.67,21.21"></path> <path class="st13" d="M75.36,172.31c3.23-2.09,6.03-4.96,8.08-8.52c6.93-12.01,2.82-27.36-9.19-34.29"></path> <path class="st13" d="M92.65,97.38c12.01,6.93,27.36,2.82,34.29-9.19c1.99-3.44,3.07-7.16,3.31-10.87"></path> <path class="st13" d="M70.7,135.4c12.01,6.93,27.36,2.82,34.29-9.19c6.93-12.01,2.82-27.36-9.19-34.29"></path> <path class="st13" d="M112.56,84.1c4.11,2.93,9.14,4.66,14.57,4.66c9.66,0,18.05-5.46,22.25-13.46"></path> <path class="st13" d="M73.75,147.61c12.01-6.93,16.12-22.29,9.19-34.29"></path> <path class="st13" d="M192.7,176.4c-6.93,12.01-2.82,27.36,9.19,34.29"></path> <path class="st13" d="M214.43,163.98c-13.86,0-25.1,11.24-25.1,25.1"></path> <path class="st13" d="M224.43,166.2c-7.08-3.13-15.5-2.95-22.72,1.22"></path> <path class="st13" d="M192.97,150.29c3.7-7.43,3.37-15.93-0.28-22.87"></path> </g> <path class="st14" d="M149.12,71.43c-44.23,0-80.08,35.85-80.08,80.08s35.85,80.08,80.08,80.08s80.08-35.85,80.08-80.08 S193.35,71.43,149.12,71.43z M149.12,226.83c-41.59,0-75.31-33.72-75.31-75.31s33.72-75.31,75.31-75.31s75.31,33.72,75.31,75.31 S190.71,226.83,149.12,226.83z"></path> <g> <path class="st15" d="M151.39,212.55c5.78-4.01,11.54-8.05,17.34-12.03c1.53-1.05,2.54-2.41,3.02-4.17 c1.22-4.52,2.42-9.04,3.64-13.65c1.46,1.62,3.08,3.4,4.94,5.46c0-2.98-0.12-5.57,0.03-8.15c0.14-2.4-0.19-4.61-1.35-6.72 c-1.1-1.99-2.11-4.04-3.16-6.06c0.88,2.6,2,5.07,2.96,7.61c0.5,1.32,1.3,2.91,0.15,4.11c-0.89,0.93-0.79,1.73-0.61,2.72 c0.07,0.39,0.06,0.8,0.09,1.2c-0.49-0.55-0.7-1.16-1.02-1.71c-0.16-0.27-0.52-0.54-0.81-0.57c-2.41-0.23-3.46-1.67-3.1-4.06 c0.49-3.24,0.74-6.55-0.63-9.6c-0.93-2.08-0.43-4-0.22-6.02c0.09-0.9,0.24-1.86,0-2.7c-0.71-2.58-1.6-5.11-2.41-7.66 c-0.11-0.36-0.21-0.77-0.17-1.13c0.25-2.05,0.64-4.08,0.82-6.14c0.55-5.98,0.33-11.88-2.23-17.46c-0.44-0.96-1-1.87-1.65-3.07 c-1.59,3.56-3.01,6.74-4.44,9.92c0.48-0.28,0.77-0.66,1.1-1.01c1.53-1.67,2.75-1.54,3.77,0.47c2.72,5.37,2.66,11.14,2.44,17.26 c-1.31-2.09-2.56-3.84-3.53-5.73c-0.52-1-0.96-2.35-0.72-3.36c0.37-1.54-0.26-2.44-1.35-2.89c-1.27-0.53-1.7-1.42-1.87-2.56 c-0.14-0.97-0.69-1.41-1.56-1.69c-7.82-2.5-15.64-2.51-23.47-0.02c-0.92,0.29-1.5,0.74-1.66,1.76c-0.16,1.09-0.56,1.97-1.77,2.48 c-0.69,0.29-1.6,1.38-1.49,1.92c0.21,1.05-0.25,1.84-0.35,2.74c-0.32,2.85-2.58,4.64-3.79,7.07c-0.07-3.54-0.07-7.05,0.39-10.49 c0.29-2.18,1.13-4.33,1.99-6.38c0.91-2.16,2.28-2.29,3.8-0.58c0.32,0.35,0.61,0.73,0.91,1.1c0.06-0.03,0.12-0.06,0.17-0.1 c-1.43-3.2-2.87-6.39-4.38-9.77c-0.34,0.47-0.53,0.7-0.68,0.95c-1.97,3.46-3.07,7.19-3.37,11.13c-0.36,4.76,0.08,9.49,0.85,14.19 c0.08,0.48,0,1.03-0.15,1.51c-0.78,2.56-1.67,5.09-2.38,7.67c-0.22,0.8-0.05,1.72,0.04,2.58c0.21,2.01,0.69,3.92-0.22,6.02 c-1.39,3.18-1.12,6.62-0.55,9.99c0.25,1.48-0.78,3.47-2.16,3.46c-1.66,0-2.04,0.94-2.42,2.13c-0.05,0.14-0.16,0.27-0.38,0.62 c0-0.56-0.04-0.86,0.01-1.14c0.17-1.15,0.57-2.28-0.7-3.2c-0.34-0.25-0.38-1.16-0.29-1.72c0.14-0.94,0.42-1.89,0.78-2.78 c0.94-2.35,1.95-4.66,2.94-6.99c-1.18,1.82-2.18,3.72-3.15,5.63c-0.82,1.61-1.64,3.21-1.6,5.09c0.07,3.21,0.1,6.42,0.16,9.62 c0,0.05,0.12,0.09,0.24,0.18c1.59-1.77,3.18-3.54,4.62-5.14c1.23,4.63,2.43,9.16,3.65,13.68c0.46,1.71,1.43,3.06,2.92,4.09 c3.81,2.61,7.56,5.29,11.36,7.92c1.98,1.37,4.01,2.66,6.01,3.99C149.27,214.08,149.27,214.08,151.39,212.55z M121.31,98.98 c0.89,6.06,0.07,12.39,3.49,18.03c-2.1-2.43-4.73-3.97-7.39-5.53c-2.64-1.54-5.14-3.31-7.82-5.07c0.88,3.06,1.66,6.19,2.68,9.24 c0.59,1.77,1.3,3.62,2.44,5.05c2.34,2.96,5.01,5.67,7.54,8.47c0.26,0.28,0.56,0.53,0.84,0.79c-0.1-0.53-0.35-0.87-0.62-1.21 c-2.36-2.96-4.73-5.9-7.06-8.88c-1.02-1.3-0.88-1.87,0.52-2.75c0.51-0.32,1.03-0.63,1.5-0.91c-1.14-1.27-2.21-2.46-3.29-3.66 c1.13,0.69,2.1,1.52,2.99,2.42c0.72,0.73,1.48,1.07,2.56,0.99c1.92-0.15,3.52,0.62,4.69,2.19c0.73,0.99,1.46,1.98,2.14,3 c0.7,1.05,1.33,2.14,2.01,3.25c0.75-1.02,0.63-1.86,0.07-2.85c-1.39-2.45-2.67-4.95-3.94-7.46c-0.94-1.86-0.52-2.72,1.5-3.29 c0.32-0.09,0.63-0.18,1.05-0.3c-0.7-1.37-1.35-2.64-2-3.91c0.93,0.91,1.68,1.94,2.51,2.89c0.28,0.32,0.76,0.63,1.17,0.65 c2.48,0.12,4.12,1.38,5.05,3.6c1.19,2.83,2.33,5.69,3.5,8.54c0.71,1.74,1.42,3.48,2.13,5.21c0.06-0.03,0.13-0.05,0.19-0.08 c-0.3-1.25-0.6-2.49-0.91-3.74c0.05-0.02,0.1-0.03,0.14-0.05c0.53,1.12,1.06,2.25,1.6,3.37c-0.87-3-2.07-5.87-2.96-8.83 c-1.18-3.94-2.19-7.95-3.14-11.96c-0.38-1.62,0.18-2.25,1.83-2.58c0.65-0.13,1.34-0.13,2.01-0.19c-0.69-2.17-1.34-4.23-1.99-6.28 c0.97,1.41,1.74,2.88,2.42,4.4c0.53,1.18,1.1,2.05,2.64,2.09c0.69,0.02,1.53,0.7,2.01,1.31c0.64,0.81,1.17,1.79,1.43,2.79 c1.3,5.06,2.49,10.14,3.72,15.22c0.16,0.68,0.28,1.36,0.42,2.04c0.89-3.23,1.45-6.44,2.24-9.58c0.78-3.1,1.72-6.17,2.75-9.19 c0.56-1.63,1.8-2.63,3.66-2.79c0.47-0.04,1.06-0.56,1.31-1.01c0.96-1.75,1.8-3.57,2.69-5.36c0.08,0.03,0.15,0.05,0.23,0.08 c-0.66,2.1-1.32,4.2-2,6.34c0.35,0.02,0.61,0.03,0.87,0.04c2.76,0.12,3.23,0.67,2.92,3.38c-0.04,0.39-0.07,0.8-0.19,1.17 c-1.34,4.45-2.69,8.9-4.07,13.34c-0.48,1.54-1.07,3.04-1.61,4.55c0.08,0.03,0.15,0.05,0.23,0.08c0.32-0.63,0.65-1.25,0.97-1.88 c0.07,0.03,0.14,0.06,0.22,0.09c-0.25,1.06-0.51,2.11-0.76,3.17c0.54-0.79,0.89-1.64,1.24-2.48c1.53-3.74,3.02-7.5,4.59-11.22 c0.65-1.53,1.61-3.15,3.36-3.21c2.34-0.08,3.34-1.57,4.48-3.11c0.18-0.25,0.4-0.46,0.6-0.69c0.05,0.04,0.09,0.08,0.14,0.11 c-0.61,1.22-1.22,2.44-1.85,3.69c3.39,0.9,3.63,1.44,2.09,4.42c-1.17,2.27-2.33,4.54-3.6,6.75c-0.56,0.97-0.48,1.75,0.11,2.64 c1.28-1.93,2.53-3.83,3.81-5.71c1.32-1.93,3.14-2.84,5.52-2.71c0.57,0.03,1.27-0.28,1.73-0.65c1.13-0.91,2.17-1.94,3.24-2.92 c0.07,0.07,0.13,0.13,0.2,0.2c-1.1,1.21-2.2,2.42-3.35,3.68c0.42,0.25,0.79,0.47,1.17,0.69c1.85,1.08,1.95,1.53,0.6,3.25 c-2.33,2.98-4.69,5.93-7.04,8.9c-0.2,0.25-0.35,0.53-0.52,0.8c1.01-0.76,1.82-1.66,2.64-2.56c2.13-2.34,4.65-4.44,6.29-7.09 c2.6-4.19,3.52-9.09,4.64-14.09c-1.06,0.86-1.94,1.57-2.82,2.27c-3.91,3.09-9.03,4.46-12.32,8.61c3.39-5.65,2.62-11.97,3.35-18.05 c-0.35,0.14-0.57,0.33-0.77,0.54c-2.11,2.12-4.05,4.45-6.37,6.31c-2.71,2.16-4.64,4.76-6.06,7.83c-0.16,0.35-0.36,0.68-0.54,1.02 c0.02-0.94,0.22-1.82,0.45-2.69c0.65-2.46,1.72-4.89,1.89-7.38c0.35-5.19-0.77-10.28-1.79-15.44c-0.21,0.15-0.34,0.2-0.41,0.3 c-2.61,3.65-5.27,7.26-7.79,10.96c-1.35,1.99-2.73,4.03-3.63,6.24c-1.81,4.49-2.16,9.3-2.41,14.1c-0.02,0.44-0.07,0.87-0.11,1.31 c-0.43-2.61-0.61-5.19-0.93-7.75c-0.58-4.63-1.73-9.05-4.68-12.84c-1.81-2.32-3.49-4.74-5.22-7.14c-1.22-1.69-2.4-3.41-3.86-5.49 c-0.56,3.84-1.03,7.3-1.57,10.75c-0.57,3.66-0.02,7.16,1.26,10.61c0.53,1.41,0.8,2.92,1.24,4.6c-0.27-0.23-0.35-0.28-0.39-0.34 c-0.17-0.31-0.33-0.62-0.48-0.94c-1.32-2.71-2.82-5.27-5.31-7.12c-0.74-0.55-1.41-1.19-2.08-1.82 C125.28,102.75,123.35,100.91,121.31,98.98z M114,134.65c-1.18-0.88-2.18-1.58-3.14-2.34c-1.8-1.43-1.8-1.79-0.19-3.36 c0.04-0.04,0.01-0.15,0.02-0.22c-0.69-0.37-1.37-0.74-2.05-1.11c1.32,0.28,2.76,0.83,3.77,0.4c1.55-0.66,2.76-0.52,4.08,0.23 c1.26,0.71,2.53,1.41,3.77,2.16c1.48,0.89,2.93,1.82,4.39,2.74c0.06-0.09,0.13-0.18,0.19-0.27c-1.58-1.29-3.09-2.7-4.78-3.85 c-1.54-1.05-3.17-2.24-4.93-2.65c-4.33-1.02-8.8-1.44-13.01-3.16C104.99,128.05,108.21,132.48,114,134.65z M196.12,123.44 c-3.45,0.79-6.82,1.81-10.26,2.3c-5.83,0.83-9.57,4.58-12.58,7.55c0.5-0.29,0.72-0.41,0.94-0.53c2.6-1.56,5.19-3.14,7.81-4.66 c1.14-0.66,2.3-0.86,3.59-0.1c0.57,0.34,1.49,0.18,2.23,0.08c0.57-0.08,1.11-0.43,1.66-0.65c-0.27,0.35-0.62,0.58-0.98,0.79 c-0.35,0.2-0.73,0.37-1.12,0.57c1.76,1.76,1.74,2.06-0.1,3.56c-0.48,0.39-0.97,0.76-1.47,1.12c-0.48,0.35-0.97,0.69-1.73,1.23 C190,132.48,193.21,128.03,196.12,123.44z M120.58,160.09c-0.08-0.09-0.16-0.18-0.24-0.27c-2.96,1.96-5.91,3.94-8.88,5.87 c-1.18,0.77-1.63,0.61-2.24-0.67c-0.14-0.3-0.26-0.61-0.4-0.93c-0.94,0.71-1.84,1.38-2.73,2.05c0.57-0.98,1.31-1.73,2.01-2.51 c0.25-0.28,0.6-0.74,0.52-0.99c-0.52-1.57,0.55-2.32,1.55-3c1.55-1.07,3.16-2.07,4.81-2.99c1.84-1.03,3.74-1.93,5.62-2.89 c-1.76,0.46-3.51,0.93-5.08,1.76c-2.58,1.38-5.42,2.61-7.45,4.61c-2.6,2.58-4.51,5.86-6.7,8.82c2.46-0.34,4.98-0.67,7.49-1.04 c0.51-0.08,1.08-0.2,1.49-0.49C113.77,165.01,117.17,162.54,120.58,160.09z M177.85,159.77c-0.06,0.09-0.12,0.17-0.18,0.26 c2.3,1.72,4.8,3.24,6.87,5.21c3.57,3.38,8.15,2.82,12.35,3.82c-1.89-2.58-3.69-5.05-5.53-7.51c-0.55-0.74-1.1-1.52-1.81-2.07 c-3.54-2.77-7.62-4.47-11.9-5.74c0.47,0.32,0.98,0.55,1.47,0.82c3.02,1.71,6.06,3.36,9.01,5.18c0.7,0.43,1.56,1.45,1.5,2.11 c-0.12,1.18,0.43,1.77,1.09,2.45c0.53,0.55,1.05,1.1,1.58,1.66c-0.05,0.07-0.11,0.13-0.16,0.2c-0.91-0.68-1.82-1.37-2.74-2.06 c-0.96,2.4-1.2,2.49-3.3,1.19c-0.9-0.55-1.77-1.15-2.64-1.74C181.58,162.29,179.72,161.03,177.85,159.77z M120.16,160.93 c-7.27,4.63-10.84,9.93-12.86,19.75c1.79-0.93,3.48-1.82,5.19-2.67c1.92-0.96,3.53-2.25,4.73-4.07c1.45-2.2,2.97-4.35,4.46-6.53 c0.17-0.26,0.31-0.54,0.46-0.81c-0.45,0.29-0.75,0.67-1.05,1.04c-1.81,2.27-3.61,4.53-5.43,6.79c-0.72,0.9-1.51,0.98-2.32,0.1 c-0.16-0.18-0.36-0.33-0.55-0.51c-0.54,0.74-1.02,1.41-1.51,2.08c0.1-0.8,0.58-1.43,0.68-2.12c0.1-0.67-0.23-1.4-0.25-2.1 c-0.01-0.46,0.09-0.99,0.32-1.38c0.69-1.16,1.36-2.37,2.25-3.36C116.34,164.82,118.53,162.63,120.16,160.93z M176.72,167.21 c3.23,6.76,9.28,12.3,13.89,13.17c-1.11-8.65-5.59-15.27-13.07-19.57c1.3,1.24,2.85,2.55,4.19,4.05c1.57,1.75,3.02,3.62,4.37,5.54 c0.37,0.52,0.48,1.52,0.24,2.11c-0.35,0.86-0.2,1.49,0.18,2.21c0.23,0.43,0.41,0.88,0.62,1.32c-0.07,0.04-0.15,0.08-0.22,0.12 c-0.49-0.7-0.98-1.41-1.47-2.12c-1.79,1.56-1.93,1.58-3.38-0.17C180.26,171.67,178.5,169.43,176.72,167.21z M118.95,138.63 c0.04-0.06,0.09-0.13,0.13-0.19c-0.94-0.36-1.89-0.68-2.8-1.09c-2.59-1.16-5.17-1.58-8.05-0.94c-2.44,0.54-5.02,0.45-7.59,0.64 c3.39,3.9,7.36,6.74,13.14,7.1c-1.35-0.48-2.34-0.81-3.32-1.17c-2.03-0.75-2.02-0.76-1.23-2.71c0.09-0.23,0.12-0.48,0.2-0.81 c-1.01-0.2-1.93-0.38-2.86-0.56c0.33-0.16,0.64-0.19,0.94-0.15c1.33,0.15,2.57,0.2,3.59-1.01c0.75-0.89,1.87-0.85,2.94-0.54 C115.68,137.68,117.32,138.16,118.95,138.63z M197.53,137.11c-2.84-0.26-5.65-0.22-8.31-0.84c-3.82-0.89-6.77,1.15-10.02,2.23 c1.62-0.33,3.21-0.79,4.8-1.27c1.22-0.38,2.4-0.36,3.29,0.63c0.85,0.95,1.86,1.02,2.98,0.92c0.42-0.04,0.84-0.05,1.25-0.07 c0.01,0.07,0.02,0.14,0.03,0.21c-0.91,0.18-1.82,0.35-2.85,0.55c0.2,0.52,0.3,0.91,0.49,1.24c0.66,1.13,0.37,1.79-0.91,2.08 c-0.59,0.14-1.16,0.39-1.74,0.61c-0.57,0.21-1.13,0.43-2,0.76C190.24,143.78,194.18,140.93,197.53,137.11z M122.31,152.47 c-0.35,0-0.7-0.04-1.03,0.01c-3.53,0.48-7.04,1.02-10.58,1.44c-2.25,0.27-2.81,0.67-2.46-2.08c0.02-0.15-0.09-0.32-0.17-0.59 c-1.21,0.23-2.38,0.44-3.54,0.66c-0.03-0.12-0.06-0.24-0.09-0.36c1.3-0.42,2.61-0.85,3.99-1.3c0.55-1.78,1.69-2.64,3.97-2.81 c2.38-0.17,4.76-0.28,7.14-0.42c-2.86-0.14-5.71-0.2-8.56-0.11c-0.79,0.02-1.63,0.38-2.36,0.75c-2.31,1.16-4.56,2.42-6.86,3.61 c-0.65,0.33-1.34,0.57-1.98,0.83C107.25,156.66,114.78,154.25,122.31,152.47z M190,151.2c0,0.59-0.01,0.93,0,1.26 c0.07,1.68,0.06,1.73-1.66,1.53c-2.48-0.29-4.96-0.64-7.44-0.96c-1.65-0.21-3.3-0.41-4.95-0.62c-0.02,0.18-0.05,0.35-0.07,0.53 c4.59,0.64,9.16,1.55,13.77,1.82c3.06,0.18,5.92-1.34,8.62-2.4c-3.01-1.65-6-3.29-8.98-4.92c-0.23-0.12-0.49-0.23-0.75-0.25 c-3.3-0.2-6.6-0.39-9.91-0.58c-0.01,0.13-0.01,0.27-0.02,0.4c2.32,0.13,4.64,0.25,6.95,0.4c2.07,0.13,3.76,0.83,4.25,2.78 c1.45,0.51,2.68,0.95,3.92,1.39c-0.03,0.11-0.07,0.22-0.1,0.32C192.5,151.68,191.35,151.46,190,151.2z M153.15,99.81 c-1.41-2.98-2.85-6.02-4.28-9.04c-1.3,3.09-2.54,6.04-3.8,9.05c0.24,0.11,0.54,0.29,0.87,0.4c1.31,0.44,1.67,0.23,1.99-1.12 c0.17-0.7,0.34-1.4,0.51-2.1c0.31,0.73,0.36,1.46,0.57,2.15c0.4,1.3,1.04,1.55,2.3,1.08C151.84,100.03,152.44,99.97,153.15,99.81z M158.44,107.38c-1.89,6.13-3.78,12.25-5.67,18.38C155.46,119.87,157.47,113.76,158.44,107.38z M145.45,125.79 c-1.9-6.16-3.8-12.32-5.7-18.48C140.71,113.75,142.78,119.86,145.45,125.79z M129.22,113.66c1.76,5.31,4.47,10.07,7.75,14.52 C134.39,123.34,131.8,118.5,129.22,113.66z M169,113.65c-2.58,4.84-5.17,9.68-7.75,14.52C163.38,126.08,168.2,117.06,169,113.65z M189.86,172.97c1.12,0.22,2.03,0.4,3.18,0.62c-0.32-1.52-0.58-2.77-0.84-4.02c-0.08,0.01-0.16,0.03-0.25,0.04 c-0.03,0.55-0.05,1.09-0.09,1.86c-1.69-1.33-3.24-2.55-4.78-3.76c-0.12,0.13-0.23,0.26-0.35,0.38c1.49,1.41,2.99,2.81,4.55,4.29 C190.78,172.59,190.42,172.74,189.86,172.97z M106.62,172.25c1.64-1.61,3.09-3.04,4.55-4.47c-0.02-0.02-0.05-0.05-0.07-0.07 c-1.53,1.21-3.06,2.43-4.73,3.76c-0.05-0.74-0.08-1.28-0.12-1.82c-0.08-0.01-0.17-0.03-0.25-0.04c-0.25,1.27-0.5,2.54-0.79,4.02 c1.17-0.25,2.04-0.44,3.1-0.67C107.76,172.72,107.4,172.57,106.62,172.25z M189.73,181.09 M175.69,154.99 c1.62,2.27,8.75,6.92,10.87,7.26C182.92,159.83,179.3,157.41,175.69,154.99z M172.44,137.28c3.46-0.97,10.91-5.49,12.1-7.27 C180.57,132.39,176.67,134.74,172.44,137.28z M125.36,137.02c-3.88-2.33-7.76-4.66-11.65-6.98 C117.15,133.15,121.08,135.43,125.36,137.02z M190.34,119.92c-1.76,0-3.38,0-5.01,0c0,0.03,0.01,0.07,0.01,0.1 c0.98,0.13,1.96,0.26,2.93,0.38c0.03,0.17,0.05,0.34,0.08,0.51c-0.89,0.67-1.79,1.34-2.79,2.09c2.43-0.58,2.43-0.58,2.98,0.36 C189.12,122.27,189.69,121.16,190.34,119.92z M122.71,155.25c-0.07-0.08-0.14-0.17-0.22-0.25c-3.49,2.34-6.97,4.68-10.46,7.02 C116.06,160.45,119.48,158,122.71,155.25z M114.85,170.91c3.36-2.84,5.95-6.27,7.9-10.2 C120.11,164.11,117.48,167.51,114.85,170.91z M183.34,170.88c-2.63-3.4-5.27-6.8-7.9-10.21 C177.39,164.61,179.99,168.03,183.34,170.88z M112.96,120.03c0-0.04,0-0.07,0-0.11c-1.66,0-3.31,0-5.08,0 c0.66,1.28,1.23,2.38,1.8,3.49c0.7-1.88,1.96-0.19,2.89-0.46c-0.91-0.69-1.82-1.37-2.73-2.06c0.05-0.17,0.1-0.34,0.14-0.51 C110.97,120.26,111.96,120.14,112.96,120.03z M185.8,140.09c-3.87,0.98-7.75,1.96-11.62,2.94 C178.26,142.86,182.14,141.91,185.8,140.09z M171.55,127.48c0.09,0.06,0.17,0.13,0.26,0.19c2.75-2.82,5.24-5.83,6.91-9.46 C176.33,121.3,173.94,124.39,171.55,127.48z M123.52,143.24c0.03-0.11,0.06-0.22,0.08-0.33c-3.77-0.95-7.55-1.91-11.32-2.86 C115.85,141.8,119.61,142.83,123.52,143.24z M119.32,118c0.79,2.49,5.42,8.47,7.46,9.62C124.24,124.35,121.86,121.28,119.32,118z M183.74,181.82c-0.89-0.21-1.46-0.34-2.03-0.47c-0.02,0.07-0.05,0.14-0.07,0.21c1.07,0.69,2.15,1.38,3.3,2.12 c0-1.54,0-2.88,0-4.21c-0.05,0-0.09,0-0.14-0.01c-0.15,0.47-0.3,0.95-0.51,1.63c-0.61-0.78-1.1-1.42-1.6-2.05 c-0.05,0.04-0.09,0.08-0.14,0.12C182.9,179.95,183.26,180.74,183.74,181.82z M192.23,158.02c-1.91-0.61-3.66-1.16-5.41-1.72 c1.14,0.75,2.36,1.22,3.53,1.81c1.18,0.6,2.3,1.34,3.45,2.01c0.08-0.06,0.16-0.12,0.25-0.19c-0.69-1.16-1.38-2.32-2.07-3.48 c-0.08,0.05-0.17,0.1-0.25,0.15C191.87,157.04,192.02,157.46,192.23,158.02z M111.47,156.52c-0.02-0.08-0.04-0.16-0.06-0.24 c-1.76,0.57-3.52,1.14-5.41,1.74c0.17-0.55,0.3-0.95,0.43-1.35c-0.1-0.04-0.19-0.09-0.29-0.13c-0.65,1.14-1.3,2.28-1.95,3.42 c1.34-0.49,2.42-1.2,3.57-1.79C108.97,157.56,110.23,157.07,111.47,156.52z M113.92,181.05c-0.22-0.64-0.38-1.11-0.66-1.94 c0,1.75,0,3.08,0,4.61c1.14-0.76,2.13-1.41,3.12-2.07c-0.03-0.07-0.07-0.14-0.1-0.21c-0.52,0.1-1.04,0.19-1.79,0.33 c0.49-1.08,0.88-1.94,1.27-2.8c-0.04-0.03-0.09-0.06-0.13-0.09C115.09,179.58,114.54,180.27,113.92,181.05z M175.43,149.41 c2.17,1.18,9.03,1.87,10.26,1.22C182.25,150.22,178.84,149.81,175.43,149.41z M112.55,150.62c0,0.11,0.01,0.23,0.01,0.34 c3.46-0.1,6.91-0.23,10.22-1.56C119.37,149.81,115.96,150.22,112.55,150.62z M104.83,144.82c0.84,0.32,1.32,0.65,1.79,0.65 c1.98-0.03,3.96-0.16,5.95-0.25c0-0.05,0-0.1,0-0.14c-1.42-0.09-2.84-0.18-4.31-0.27c0.14-0.39,0.23-0.63,0.34-0.94 C107.38,144.17,106.3,144.44,104.83,144.82z M185.67,145.06c0,0.04,0,0.09,0,0.13c1.31,0.07,2.71-0.12,3.9,0.28 c1.41,0.48,2.3-0.22,3.37-0.79c-1.11-0.27-2.22-0.54-3.38-0.82c0.14,0.34,0.25,0.59,0.4,0.95 C188.45,144.9,187.06,144.98,185.67,145.06z M177.69,108.18c1.57,0.6,0.28,1.42,0.26,2c0.9-0.42,1.8-0.83,2.8-1.29 c0-0.4,0-1.04,0-1.81C179.73,107.45,178.8,107.78,177.69,108.18z M117.49,109.24c0.07-0.11,0.15-0.22,0.22-0.33 c0.85,0.44,1.7,0.87,2.67,1.37c-0.4-0.76-1.23-1.49,0.07-2.13c-1.08-0.39-1.97-0.71-2.95-1.06 C117.49,107.88,117.49,108.56,117.49,109.24z M149.07,110.01 M167.32,100.69c2.31-0.74,1.84,1.53,2.58,2.45c0-1.48,0-2.9,0-4.5 C168.92,99.41,168.12,100.05,167.32,100.69z M121.21,177.06c0.17,0.08,0.33,0.15,0.5,0.23c0.9-2.37,1.8-4.73,2.71-7.1 c-0.18-0.07-0.36-0.14-0.54-0.2C122.98,172.34,122.1,174.7,121.21,177.06z M128.28,98.59c0,1.69,0,3.11,0,4.68 c0.7-1.16,0.37-3.22,2.96-2.28C130.12,100.07,129.32,99.42,128.28,98.59z M176.5,177.29c0.17-0.07,0.34-0.14,0.52-0.22 c-0.89-2.36-1.79-4.72-2.68-7.08c-0.18,0.07-0.35,0.13-0.53,0.2C174.7,172.56,175.6,174.93,176.5,177.29z M190.32,135.8 c0.15,0.06,0.31,0.13,0.46,0.19c0.47-0.46,0.94-0.93,1.41-1.39c-0.7-0.54-1.4-1.08-2.1-1.62c-0.13,0.11-0.26,0.22-0.39,0.33 C191.1,133.83,191.66,134.56,190.32,135.8z M107.43,135.99c0.17-0.06,0.35-0.12,0.52-0.18c-1.63-1.3-0.57-1.92,0.43-2.54 c-0.1-0.1-0.19-0.2-0.29-0.3c-0.69,0.55-1.38,1.1-2.07,1.65C106.5,135.07,106.96,135.53,107.43,135.99z"></path> <path d="M146.77,212.36c-2.01-1.33-4.03-2.63-6.01-3.99c-3.8-2.62-7.55-5.31-11.36-7.92c-1.5-1.02-2.46-2.37-2.92-4.09 c-1.22-4.52-2.42-9.05-3.65-13.68c-1.44,1.6-3.03,3.37-4.62,5.14c-0.12-0.09-0.24-0.13-0.24-0.18c-0.06-3.21-0.09-6.42-0.16-9.62 c-0.04-1.89,0.79-3.49,1.6-5.09c0.97-1.91,1.96-3.82,3.15-5.63c-0.98,2.33-2,4.65-2.94,6.99c-0.36,0.89-0.63,1.83-0.78,2.78 c-0.09,0.57-0.05,1.47,0.29,1.72c1.27,0.92,0.87,2.05,0.7,3.2c-0.04,0.28-0.01,0.58-0.01,1.14c0.22-0.35,0.33-0.48,0.38-0.62 c0.38-1.19,0.76-2.13,2.42-2.13c1.39,0,2.42-1.98,2.16-3.46c-0.57-3.37-0.84-6.81,0.55-9.99c0.91-2.09,0.44-4,0.22-6.02 c-0.09-0.86-0.26-1.78-0.04-2.58c0.71-2.58,1.6-5.11,2.38-7.67c0.15-0.48,0.23-1.03,0.15-1.51c-0.78-4.7-1.22-9.43-0.85-14.19 c0.3-3.94,1.41-7.68,3.37-11.13c0.15-0.26,0.34-0.48,0.68-0.95c1.52,3.38,2.95,6.58,4.38,9.77c-0.06,0.03-0.12,0.06-0.17,0.1 c-0.3-0.37-0.59-0.74-0.91-1.1c-1.52-1.71-2.9-1.58-3.8,0.58c-0.86,2.05-1.7,4.2-1.99,6.38c-0.46,3.45-0.46,6.95-0.39,10.49 c1.22-2.44,3.48-4.23,3.79-7.07c0.1-0.91,0.56-1.7,0.35-2.74c-0.11-0.55,0.81-1.63,1.49-1.92c1.22-0.51,1.61-1.39,1.77-2.48 c0.15-1.03,0.73-1.47,1.66-1.76c7.83-2.49,15.64-2.48,23.47,0.02c0.87,0.28,1.42,0.72,1.56,1.69c0.17,1.14,0.6,2.04,1.87,2.56 c1.08,0.45,1.71,1.35,1.35,2.89c-0.24,1.02,0.2,2.36,0.72,3.36c0.97,1.89,2.22,3.64,3.53,5.73c0.23-6.13,0.28-11.89-2.44-17.26 c-1.02-2.01-2.24-2.14-3.77-0.47c-0.32,0.35-0.62,0.73-1.1,1.01c1.42-3.18,2.85-6.36,4.44-9.92c0.65,1.2,1.21,2.11,1.65,3.07 c2.57,5.58,2.78,11.48,2.23,17.46c-0.19,2.05-0.57,4.09-0.82,6.14c-0.05,0.37,0.05,0.77,0.17,1.13c0.8,2.55,1.69,5.08,2.41,7.66 c0.23,0.84,0.09,1.81,0,2.7c-0.2,2.02-0.71,3.93,0.22,6.02c1.36,3.05,1.12,6.37,0.63,9.6c-0.36,2.39,0.69,3.83,3.1,4.06 c0.29,0.03,0.66,0.31,0.81,0.57c0.32,0.55,0.53,1.17,1.02,1.71c-0.03-0.4-0.02-0.81-0.09-1.2c-0.18-1-0.28-1.79,0.61-2.72 c1.15-1.2,0.35-2.79-0.15-4.11c-0.96-2.54-2.08-5.01-2.96-7.61c1.05,2.02,2.06,4.07,3.16,6.06c1.17,2.11,1.5,4.33,1.35,6.72 c-0.15,2.58-0.03,5.17-0.03,8.15c-1.86-2.06-3.47-3.84-4.94-5.46c-1.23,4.61-2.42,9.14-3.64,13.65c-0.48,1.76-1.48,3.12-3.02,4.17 c-5.8,3.98-11.56,8.01-17.34,12.03c0.13-0.41,0.32-0.82,0.39-1.24c1.26-7.37,4.01-14.03,9.43-19.34c1.46-1.43,2.02-3.01,2.36-5.02 c1.41-8.34,3.7-16.46,7.34-24.13c1.33-2.81,0.73-5.15-0.74-7.57c-0.75-1.23-1.32-2.56-2.05-3.81c-0.6-1.03-1.31-2-1.97-3 c-0.12,0.07-0.24,0.15-0.36,0.22c0.17,0.35,0.34,0.69,0.49,1.04c0.17,0.4,0.33,0.81,0.47,1.23c0.61,1.72,0.41,1.97-1.45,1.92 c-2.26-0.06-3.11,0.52-4.03,2.64c-0.28,0.63-0.7,1.2-1.07,1.8c-0.02,0.04-0.13,0.02-0.24,0.04c0.06-0.33,0.11-0.64,0.15-0.86 c-0.52,0.6-0.97,1.33-1.61,1.81c-1.1,0.82-2.3,1.54-3.51,2.21c-1.45,0.81-2.15,2.03-1.94,3.52c0.1,0.72,0.4,1.04,1.18,1.08 c3.19,0.16,6.07-0.35,7.97-3.29c0.05-0.08,0.21-0.1,0.57-0.26c-0.39,1.9-0.64,3.65-1.13,5.31c-0.5,1.67-1.25,3.26-1.89,4.89 c3.17-4.09,4.88-7.62,6.66-13.45c2.14-0.24,2.43,0.04,2.21,2.13c-0.02,0.22-0.08,0.43-0.12,0.65c-0.74,4.02-3.07,7.13-5.8,10 c-0.47,0.49-0.96,1.1-1.1,1.73c-0.88,3.94-1.69,7.9-2.45,11.86c-0.54,2.83-0.95,5.68-1.42,8.52c-0.15-0.03-0.3-0.05-0.45-0.08 c1.11-6.62,2.23-13.24,3.37-20.02c-1.41,1.28-2.98,2.25-2.38,4.51c0.18,0.67-0.13,1.47-0.26,2.57c-0.35-0.49-0.48-0.61-0.54-0.76 c-0.86-2.16-1.77-4.3-2.55-6.49c-0.78-2.22-1.46-4.48-2.12-6.75c-0.63-2.18-0.86-4.53-1.81-6.56c-1.29-2.77-1.64-5.48-1.2-8.45 c0.22-1.49-0.02-3.05-0.06-4.57c0.3,0.15,0.63,0.47,0.9,0.42c1.81-0.32,3.47-0.98,4.8-2.4c-1.61-1.29-3.22-2.23-4.93-2.26 c0.28,1.02,0.75,1.98,0.73,2.94c-0.01,0.45-0.97,0.87-1.5,1.3c-0.93,0.69-1.7,0.21-2.29-0.47c-1-1.14-0.84-1.97,0.61-3.8 c-2.13,0.1-3.75,1.01-5.6,2.57c2.04,0.92,3.83,1.72,5.68,2.55c0.14,1.57,0.28,3.32,0.45,5.06c0.23,2.33-0.19,4.48-1.18,6.65 c-0.89,1.97-1.32,4.16-1.92,6.26c-0.68,2.39-1.23,4.83-2.03,7.18c-0.78,2.32-1.8,4.56-2.73,6.83c-0.07,0.16-0.26,0.26-0.62,0.6 c-0.07-1.13-0.19-1.99-0.15-2.85c0.09-1.73-0.79-3.2-2.54-3.89c1.33,6.64,2.9,13.2,3.2,20.34c-0.92-5.17-1.73-9.97-2.63-14.75 c-0.68-3.6-1.23-7.14-4.25-9.9c-2.41-2.21-3.74-5.3-4.14-8.64c-0.24-2,0.28-2.41,2.27-1.96c1.09,4.56,4.01,10.55,6.61,13.41 c-1.41-3.23-2.77-6.48-2.71-10.2c1.81,2.86,4.5,3.66,7.64,3.51c1.57-0.07,2.06-0.53,1.73-2.09c-0.14-0.64-0.48-1.38-0.97-1.78 c-0.81-0.67-1.84-1.06-2.73-1.64c-1.57-1.03-3.5-1.83-4.23-3.64c-0.94-2.3-2.34-3.39-4.82-3.08c-1.09,0.13-1.47-0.42-1.09-1.45 c0.35-0.95,0.73-1.9,1.09-2.85c-0.1-0.06-0.2-0.12-0.3-0.18c-0.64,0.92-1.33,1.81-1.9,2.78c-0.83,1.43-1.58,2.92-2.35,4.39 c-1.01,1.93-1.89,3.83-1.01,6.13c1.81,4.75,3.73,9.48,5.2,14.34c1.24,4.1,1.9,8.38,2.86,12.56c0.17,0.72,0.44,1.53,0.94,2.03 c5.47,5.43,9.05,11.82,10.33,19.46C146.3,210.87,146.57,211.61,146.77,212.36z M153.97,210.15c0.3-0.11,0.42-0.13,0.51-0.19 c4.74-3.49,9.51-6.94,14.18-10.52c0.85-0.65,1.57-1.73,1.89-2.75c1.18-3.72,2.23-7.48,3.2-11.26c0.57-2.2,0.92-4.47-0.7-6.58 c-0.22,0.61-0.4,1.18-0.61,1.73c-2.52,6.5-6.54,12-11.35,16.96C157.65,201.08,155.71,205.46,153.97,210.15z M143.96,210.14 c-1.49-4.66-3.41-8.98-6.78-12.55c-2.11-2.23-4.07-4.61-5.92-7.06c-2.66-3.54-4.77-7.4-6.13-11.74c-1.2,2.1-1.45,2.93-0.97,4.86 c1.11,4.42,2.27,8.84,3.54,13.22c0.26,0.91,0.92,1.87,1.68,2.44C134.2,202.97,139.09,206.54,143.96,210.14z M139.21,145.24 c-3.2,0.01-5.33,1.6-5.98,4.08c-0.47,1.8-0.1,2.46,1.63,3.11c2.56,0.98,5.47,1.4,6.44,4.72c0.29,0.98,1.41,1.75,2.26,2.51 c0.86,0.77,2.8,0.28,3.16-0.82c0.28-0.85,0.45-1.81,0.38-2.7c-0.21-2.57-1.08-4.97-2.41-7.17 C143.33,146.72,141.17,145.73,139.21,145.24z M159.01,145.24c-1.56,0.4-3.51,1.13-4.85,2.86c-1.89,2.46-2.81,5.33-3.09,8.4 c-0.05,0.6,0.05,1.24,0.19,1.83c0.27,1.1,0.88,1.75,2.18,1.54c1.06-0.17,3.71-2.06,3.81-3.2c0.13-1.51,1.15-2.12,2.19-2.66 c1.32-0.68,2.76-1.12,4.14-1.65c1.37-0.53,1.76-1.21,1.5-2.65C164.61,147.07,162.35,145.26,159.01,145.24z M133.44,187.83 c-1.6-7.07-3.54-14.01-7.08-20.38C126.05,175.19,128.61,181.91,133.44,187.83z M171.97,167.25c-2.43,3.1-7.29,18.16-7.09,20.68 C169.61,181.88,172.17,175.14,171.97,167.25z M161.73,140.26c0.89-5.81,0.32-5.42-2.67-6.15c1.34,1.5,1.25,2.77-0.13,4.71 c-0.06-1.21,0.17-2.84-0.29-4.23c-0.6-1.82-2.62-1.24-4.15-1.67c3.25,1.53,0.9,3.95,1.07,5.79c2.67,1.14,5.26,2.24,7.89,3.35 c0.42-0.72,0.84-1.48,1.32-2.22c0.6-0.93-0.06-1.38-0.67-1.81c-0.69-0.48-1.13-0.1-1.46,0.53 C162.35,139.13,162.04,139.69,161.73,140.26z M143.73,132.94c-1.52,0.39-3.51-0.16-4.12,1.6c-0.49,1.4-0.25,3.05-0.33,4.44 c-0.21-1.52-2.4-3.06-0.09-4.97c-0.49,0.09-0.84,0.26-1.21,0.33c-1.43,0.28-1.95,1.18-1.79,2.55c0.14,1.16,0.31,2.32,0.49,3.69 c-0.39-0.69-0.7-1.21-0.98-1.75c-0.34-0.64-0.65-1.36-1.56-0.79c-0.79,0.49-1.27,1.07-0.57,2.04c0.48,0.66,0.86,1.4,1.21,2 c2.7-1.14,5.3-2.25,7.87-3.34C142.77,136.8,140.49,134.45,143.73,132.94z M147.25,137.81c-1.18-2.47-1.12-3.78,0.16-5.22 c-3.98-0.77-4.6,2.42-4.16,6.07c2.51-0.23,5.02-0.46,7.67-0.7c-0.15-1.8-0.31-3.64-0.47-5.53c-0.98,0-1.75,0-2.65,0 C147.61,134.24,147.44,135.96,147.25,137.81z M154.98,138.8c0.48-4.5-0.66-7-4.24-6.12c2.26,1.62,0.35,3.61,0.5,5.5 C152.5,138.39,153.74,138.6,154.98,138.8z"></path> <path class="st15" d="M146.77,212.36c-0.2-0.75-0.47-1.5-0.6-2.26c-1.28-7.64-4.87-14.04-10.33-19.46 c-0.5-0.5-0.78-1.31-0.94-2.03c-0.97-4.19-1.62-8.46-2.86-12.56c-1.47-4.86-3.39-9.59-5.2-14.34c-0.88-2.3,0-4.2,1.01-6.13 c0.77-1.47,1.52-2.95,2.35-4.39c0.56-0.97,1.26-1.85,1.9-2.78c0.1,0.06,0.2,0.12,0.3,0.18c-0.37,0.95-0.74,1.89-1.09,2.85 c-0.38,1.03,0,1.58,1.09,1.45c2.49-0.31,3.89,0.78,4.82,3.08c0.73,1.81,2.66,2.61,4.23,3.64c0.89,0.58,1.92,0.97,2.73,1.64 c0.49,0.4,0.84,1.14,0.97,1.78c0.33,1.56-0.16,2.02-1.73,2.09c-3.13,0.14-5.82-0.65-7.64-3.51c-0.06,3.72,1.3,6.97,2.71,10.2 c-2.6-2.87-5.52-8.86-6.61-13.41c-1.99-0.45-2.51-0.04-2.27,1.96c0.4,3.34,1.73,6.43,4.14,8.64c3.01,2.76,3.57,6.31,4.25,9.9 c0.9,4.78,1.71,9.58,2.63,14.75c-0.3-7.14-1.87-13.7-3.2-20.34c1.74,0.7,2.63,2.17,2.54,3.89c-0.05,0.86,0.08,1.73,0.15,2.85 c0.35-0.33,0.55-0.44,0.62-0.59c0.93-2.27,1.94-4.51,2.73-6.83c0.8-2.35,1.34-4.79,2.03-7.18c0.6-2.1,1.03-4.29,1.92-6.26 c0.98-2.17,1.4-4.32,1.18-6.65c-0.17-1.75-0.31-3.49-0.45-5.06c-1.85-0.83-3.64-1.63-5.68-2.55c1.85-1.55,3.47-2.46,5.6-2.57 c-1.45,1.83-1.61,2.66-0.61,3.8c0.59,0.67,1.36,1.16,2.29,0.47l0-0.02c0.03,1.53,0.28,3.09,0.06,4.58 c-0.43,2.97-0.08,5.68,1.2,8.45c0.94,2.03,1.18,4.37,1.81,6.56c0.65,2.27,1.33,4.53,2.12,6.75c0.77,2.19,1.69,4.33,2.55,6.49 c0.06,0.15,0.18,0.26,0.54,0.76c0.13-1.1,0.44-1.9,0.26-2.57c-0.6-2.25,0.96-3.23,2.38-4.51c-1.14,6.78-2.25,13.4-3.37,20.02 c0.15,0.03,0.3,0.05,0.45,0.08c0.47-2.84,0.88-5.69,1.42-8.52c0.76-3.97,1.58-7.92,2.45-11.86c0.14-0.63,0.63-1.24,1.1-1.73 c2.74-2.87,5.06-5.97,5.8-10c0.04-0.22,0.09-0.43,0.12-0.65c0.23-2.09-0.07-2.37-2.21-2.13c-1.78,5.83-3.49,9.36-6.66,13.45 c0.64-1.63,1.39-3.22,1.89-4.89c0.5-1.67,0.74-3.41,1.13-5.31c-0.37,0.16-0.52,0.18-0.57,0.26c-1.9,2.94-4.78,3.45-7.97,3.29 c-0.78-0.04-1.08-0.36-1.18-1.08c-0.21-1.49,0.49-2.71,1.94-3.52c1.21-0.67,2.4-1.39,3.51-2.21c0.64-0.48,1.09-1.21,1.61-1.81 c-0.04,0.22-0.09,0.53-0.15,0.86c0.11-0.01,0.22,0,0.24-0.04c0.37-0.59,0.79-1.16,1.07-1.8c0.92-2.11,1.77-2.7,4.03-2.64 c1.87,0.05,2.06-0.2,1.45-1.92c-0.15-0.41-0.3-0.82-0.47-1.23c-0.15-0.35-0.33-0.69-0.49-1.04c0.12-0.07,0.24-0.15,0.36-0.22 c0.66,1,1.37,1.97,1.97,3c0.73,1.24,1.3,2.58,2.05,3.81c1.47,2.42,2.08,4.76,0.74,7.57c-3.63,7.67-5.93,15.79-7.34,24.13 c-0.34,2.01-0.9,3.59-2.36,5.02c-5.42,5.31-8.17,11.97-9.43,19.34c-0.07,0.42-0.26,0.83-0.39,1.24 C149.27,214.08,149.27,214.08,146.77,212.36z M149.17,176.13c-1.27,0-2.55,0-3.82,0c-1.5,0-1.87,0.48-1.41,1.93 c0.75,2.36,2.72,3.32,4.82,4.1c0.16,0.06,0.42-0.03,0.59-0.12c0.92-0.49,1.81-1.04,2.75-1.49c1.44-0.69,2.25-1.77,2.29-3.39 c0.02-0.69-0.24-1.05-1.01-1.03C151.99,176.17,150.58,176.14,149.17,176.13z M157.38,181.06c-1.12,1.03-2.2,1.98-3.24,2.98 c-0.5,0.48-0.92,0.65-1.61,0.3c-2.2-1.12-4.46-1.21-6.68-0.07c-0.81,0.42-1.35,0.23-1.95-0.37c-0.96-0.96-2-1.85-3.17-2.93 c0.14,2.37,1.69,4.2,3.45,4.43c1.02,0.13,2.03,0.47,3.05,0.49c1.51,0.03,3.02-0.12,4.53-0.22c0.59-0.04,1.18-0.26,1.77-0.25 C155.62,185.43,157.54,183.36,157.38,181.06z"></path> <path d="M121.31,98.98c2.04,1.94,3.96,3.78,5.9,5.6c0.67,0.63,1.34,1.28,2.08,1.82c2.49,1.85,3.99,4.41,5.31,7.12 c0.15,0.32,0.31,0.63,0.48,0.94c0.04,0.07,0.12,0.11,0.39,0.34c-0.44-1.68-0.72-3.19-1.24-4.6c-1.28-3.45-1.83-6.95-1.26-10.61 c0.54-3.45,1.01-6.92,1.57-10.75c1.45,2.07,2.64,3.79,3.86,5.49c1.72,2.39,3.41,4.81,5.22,7.14c2.95,3.79,4.09,8.22,4.68,12.84 c0.32,2.56,0.5,5.14,0.93,7.75c0.04-0.44,0.08-0.87,0.11-1.31c0.26-4.8,0.6-9.61,2.41-14.1c0.89-2.21,2.27-4.25,3.63-6.24 c2.52-3.71,5.18-7.32,7.79-10.96c0.07-0.09,0.19-0.15,0.41-0.3c1.02,5.16,2.13,10.26,1.79,15.44c-0.17,2.49-1.24,4.92-1.89,7.38 c-0.23,0.87-0.43,1.75-0.45,2.69c0.18-0.34,0.38-0.67,0.54-1.02c1.42-3.07,3.36-5.68,6.06-7.83c2.32-1.85,4.26-4.19,6.37-6.31 c0.2-0.2,0.42-0.4,0.77-0.54c-0.73,6.09,0.04,12.41-3.35,18.05c3.29-4.15,8.41-5.51,12.32-8.61c0.88-0.7,1.76-1.41,2.82-2.27 c-1.12,5-2.04,9.9-4.64,14.09c-1.64,2.65-4.16,4.74-6.29,7.09c-0.82,0.9-1.63,1.8-2.64,2.56c0.17-0.27,0.32-0.55,0.52-0.8 c2.34-2.97,4.71-5.92,7.04-8.9c1.35-1.72,1.24-2.17-0.6-3.25c-0.38-0.22-0.75-0.44-1.17-0.69c1.14-1.26,2.24-2.47,3.35-3.68 c-0.07-0.07-0.13-0.13-0.2-0.2c-1.07,0.98-2.1,2.02-3.24,2.92c-0.46,0.37-1.16,0.68-1.73,0.65c-2.38-0.13-4.2,0.78-5.52,2.71 c-1.28,1.88-2.53,3.78-3.81,5.71c-0.59-0.89-0.67-1.67-0.11-2.64c1.28-2.2,2.43-4.48,3.6-6.75c1.54-2.98,1.29-3.52-2.09-4.42 c0.62-1.25,1.24-2.47,1.85-3.69c-0.05-0.04-0.09-0.08-0.14-0.11c-0.2,0.23-0.42,0.45-0.6,0.69c-1.14,1.54-2.15,3.04-4.48,3.11 c-1.76,0.06-2.72,1.68-3.36,3.21c-1.57,3.72-3.06,7.48-4.59,11.22c-0.35,0.85-0.7,1.69-1.24,2.48c0.25-1.06,0.51-2.11,0.76-3.17 c-0.07-0.03-0.14-0.06-0.22-0.09c-0.32,0.63-0.65,1.25-0.97,1.88c-0.08-0.03-0.15-0.05-0.23-0.08c0.54-1.52,1.13-3.02,1.61-4.55 c1.38-4.44,2.72-8.89,4.07-13.34c0.11-0.37,0.14-0.78,0.19-1.17c0.31-2.71-0.16-3.26-2.92-3.38c-0.26-0.01-0.52-0.03-0.87-0.04 c0.68-2.14,1.34-4.24,2-6.34c-0.08-0.03-0.15-0.05-0.23-0.08c-0.89,1.79-1.73,3.6-2.69,5.36c-0.25,0.45-0.84,0.97-1.31,1.01 c-1.86,0.16-3.1,1.16-3.66,2.79c-1.03,3.03-1.97,6.09-2.75,9.19c-0.79,3.15-1.35,6.35-2.24,9.58c-0.14-0.68-0.26-1.37-0.42-2.04 c-1.22-5.08-2.42-10.16-3.72-15.22c-0.25-0.99-0.79-1.98-1.43-2.79c-0.48-0.61-1.32-1.29-2.01-1.31 c-1.54-0.04-2.11-0.91-2.64-2.09c-0.68-1.51-1.45-2.99-2.42-4.4c0.65,2.06,1.3,4.11,1.99,6.28c-0.67,0.06-1.35,0.06-2.01,0.19 c-1.65,0.33-2.21,0.96-1.83,2.58c0.95,4.01,1.95,8.01,3.14,11.96c0.89,2.96,2.09,5.83,2.96,8.83c-0.53-1.12-1.06-2.25-1.6-3.37 c-0.05,0.02-0.1,0.03-0.14,0.05c0.3,1.25,0.6,2.49,0.91,3.74c-0.06,0.03-0.13,0.05-0.19,0.08c-0.71-1.74-1.42-3.48-2.13-5.21 c-1.16-2.85-2.3-5.7-3.5-8.54c-0.94-2.22-2.57-3.48-5.05-3.6c-0.4-0.02-0.89-0.33-1.17-0.65c-0.83-0.95-1.58-1.98-2.51-2.89 c0.65,1.27,1.3,2.53,2,3.91c-0.42,0.12-0.73,0.21-1.05,0.3c-2.02,0.57-2.44,1.43-1.5,3.29c1.27,2.51,2.55,5.02,3.94,7.46 c0.56,0.99,0.68,1.82-0.07,2.85c-0.69-1.11-1.32-2.2-2.01-3.25c-0.68-1.02-1.41-2.02-2.14-3c-1.16-1.57-2.76-2.34-4.69-2.19 c-1.08,0.08-1.84-0.26-2.56-0.99c-0.9-0.9-1.86-1.73-2.99-2.42c1.07,1.2,2.15,2.4,3.29,3.66c-0.47,0.29-0.99,0.59-1.5,0.91 c-1.4,0.88-1.54,1.45-0.52,2.75c2.33,2.98,4.71,5.92,7.06,8.88c0.27,0.34,0.52,0.68,0.62,1.21c-0.28-0.26-0.58-0.51-0.84-0.79 c-2.54-2.81-5.2-5.51-7.54-8.47c-1.14-1.43-1.84-3.28-2.44-5.05c-1.02-3.05-1.81-6.18-2.68-9.24c2.68,1.75,5.19,3.53,7.82,5.07 c2.66,1.55,5.29,3.1,7.39,5.53C121.39,111.36,122.2,105.03,121.31,98.98z"></path> <path d="M114,134.65c-5.79-2.17-9.01-6.61-11.87-11.44c4.21,1.72,8.68,2.14,13.01,3.16c1.76,0.42,3.39,1.6,4.93,2.65 c1.68,1.15,3.19,2.55,4.78,3.85c-0.06,0.09-0.13,0.18-0.19,0.27c-1.46-0.92-2.91-1.85-4.39-2.74c-1.24-0.75-2.51-1.45-3.77-2.16 c-1.32-0.75-2.54-0.88-4.08-0.23c-1.02,0.43-2.45-0.12-3.77-0.4c0.68,0.37,1.36,0.74,2.05,1.11c0,0.07,0.02,0.18-0.02,0.22 c-1.62,1.57-1.61,1.93,0.19,3.36C111.82,133.07,112.82,133.78,114,134.65z"></path> <path d="M196.12,123.44c-2.91,4.59-6.12,9.05-12,11.25c0.76-0.54,1.25-0.87,1.73-1.23c0.5-0.36,0.99-0.73,1.47-1.12 c1.84-1.5,1.85-1.8,0.1-3.56c0.39-0.2,0.76-0.37,1.12-0.57c0.36-0.2,0.7-0.43,0.98-0.79c-0.55,0.23-1.08,0.57-1.66,0.65 c-0.74,0.1-1.66,0.26-2.23-0.08c-1.3-0.77-2.45-0.56-3.59,0.1c-2.63,1.52-5.21,3.1-7.81,4.66c-0.21,0.13-0.43,0.25-0.94,0.53 c3-2.97,6.74-6.71,12.58-7.55C189.3,125.24,192.67,124.23,196.12,123.44z"></path> <path d="M120.58,160.09c-3.41,2.45-6.8,4.92-10.23,7.34c-0.41,0.29-0.98,0.42-1.49,0.49c-2.51,0.37-5.03,0.7-7.49,1.04 c2.19-2.96,4.1-6.24,6.7-8.82c2.02-2,4.86-3.23,7.45-4.61c1.56-0.84,3.32-1.3,5.08-1.76c-1.88,0.96-3.78,1.86-5.62,2.89 c-1.65,0.92-3.26,1.91-4.81,2.99c-0.99,0.69-2.06,1.44-1.55,3c0.08,0.25-0.27,0.71-0.52,0.99c-0.7,0.79-1.44,1.53-2.01,2.51 c0.9-0.67,1.79-1.34,2.73-2.05c0.14,0.32,0.25,0.63,0.4,0.93c0.61,1.28,1.06,1.44,2.24,0.67c2.97-1.94,5.92-3.91,8.88-5.87 C120.42,159.91,120.5,160,120.58,160.09z"></path> <path d="M177.85,159.77c1.87,1.26,3.73,2.52,5.6,3.78c0.88,0.59,1.75,1.18,2.64,1.74c2.11,1.3,2.34,1.22,3.3-1.19 c0.92,0.69,1.83,1.37,2.74,2.06c0.05-0.07,0.11-0.13,0.16-0.2c-0.53-0.55-1.05-1.11-1.58-1.66c-0.66-0.68-1.21-1.27-1.09-2.45 c0.07-0.66-0.79-1.68-1.5-2.11c-2.95-1.81-6-3.47-9.01-5.18c-0.49-0.28-1-0.5-1.47-0.82c4.28,1.26,8.36,2.96,11.9,5.74 c0.71,0.56,1.26,1.34,1.81,2.07c1.83,2.45,3.63,4.93,5.53,7.51c-4.2-1-8.78-0.44-12.35-3.82c-2.07-1.96-4.57-3.48-6.87-5.21 C177.73,159.94,177.79,159.85,177.85,159.77z"></path> <path d="M120.16,160.93c-1.63,1.71-3.81,3.9-5.87,6.2c-0.89,1-1.56,2.21-2.25,3.36c-0.23,0.39-0.34,0.92-0.32,1.38 c0.02,0.71,0.36,1.43,0.25,2.1c-0.11,0.69-0.58,1.33-0.68,2.12c0.48-0.67,0.97-1.34,1.51-2.08c0.2,0.18,0.39,0.33,0.55,0.51 c0.82,0.88,1.6,0.8,2.32-0.1c1.82-2.26,3.62-4.53,5.43-6.79c0.3-0.38,0.6-0.76,1.05-1.04c-0.15,0.27-0.28,0.55-0.46,0.81 c-1.48,2.18-3.01,4.33-4.46,6.53c-1.2,1.82-2.81,3.11-4.73,4.07c-1.71,0.85-3.39,1.74-5.19,2.67 C109.32,170.86,112.89,165.56,120.16,160.93z"></path> <path d="M176.72,167.21c1.78,2.22,3.54,4.46,5.35,6.65c1.45,1.75,1.59,1.73,3.38,0.17c0.49,0.71,0.98,1.41,1.47,2.12 c0.07-0.04,0.15-0.08,0.22-0.12c-0.2-0.44-0.39-0.89-0.62-1.32c-0.39-0.72-0.53-1.35-0.18-2.21c0.24-0.59,0.13-1.58-0.24-2.11 c-1.36-1.92-2.81-3.79-4.37-5.54c-1.34-1.5-2.89-2.81-4.19-4.05c7.48,4.3,11.96,10.92,13.07,19.57 C186,179.51,179.95,173.97,176.72,167.21z"></path> <path d="M118.95,138.63c-1.64-0.48-3.27-0.96-4.91-1.44c-1.08-0.32-2.19-0.35-2.94,0.54c-1.02,1.2-2.26,1.15-3.59,1.01 c-0.3-0.03-0.61,0-0.94,0.15c0.93,0.18,1.85,0.37,2.86,0.56c-0.08,0.33-0.1,0.58-0.2,0.81c-0.79,1.96-0.8,1.96,1.23,2.71 c0.98,0.36,1.97,0.7,3.32,1.17c-5.78-0.36-9.74-3.2-13.14-7.1c2.58-0.19,5.16-0.1,7.59-0.64c2.88-0.64,5.46-0.22,8.05,0.94 c0.91,0.41,1.87,0.73,2.8,1.09C119.04,138.51,119,138.57,118.95,138.63z"></path> <path d="M197.53,137.11c-3.35,3.82-7.3,6.67-12.99,7.05c0.87-0.33,1.43-0.55,2-0.76c0.58-0.21,1.14-0.47,1.74-0.61 c1.28-0.29,1.57-0.95,0.91-2.08c-0.19-0.33-0.29-0.72-0.49-1.24c1.02-0.2,1.93-0.37,2.85-0.55c-0.01-0.07-0.02-0.14-0.03-0.21 c-0.42,0.02-0.84,0.03-1.25,0.07c-1.12,0.11-2.13,0.03-2.98-0.92c-0.88-0.99-2.07-1.01-3.29-0.63c-1.58,0.49-3.18,0.94-4.8,1.27 c3.25-1.08,6.2-3.12,10.02-2.23C191.88,136.89,194.7,136.85,197.53,137.11z"></path> <path d="M122.31,152.47c-7.53,1.78-15.06,4.19-22.53-0.39c0.64-0.26,1.34-0.49,1.98-0.83c2.29-1.19,4.55-2.44,6.86-3.61 c0.73-0.37,1.56-0.72,2.36-0.75c2.85-0.09,5.7-0.03,8.56,0.11c-2.38,0.14-4.76,0.25-7.14,0.42c-2.29,0.16-3.42,1.03-3.97,2.81 c-1.38,0.45-2.69,0.87-3.99,1.3c0.03,0.12,0.06,0.24,0.09,0.36c1.17-0.22,2.34-0.44,3.54-0.66c0.08,0.28,0.19,0.44,0.17,0.59 c-0.34,2.75,0.21,2.35,2.46,2.08c3.53-0.42,7.05-0.96,10.58-1.44C121.61,152.43,121.96,152.47,122.31,152.47z"></path> <path d="M190,151.2c1.34,0.26,2.49,0.48,3.65,0.71c0.03-0.11,0.07-0.22,0.1-0.32c-1.24-0.44-2.48-0.88-3.92-1.39 c-0.49-1.95-2.17-2.65-4.25-2.78c-2.32-0.14-4.64-0.27-6.95-0.4c0.01-0.13,0.01-0.27,0.02-0.4c3.3,0.19,6.6,0.38,9.91,0.58 c0.25,0.02,0.52,0.12,0.75,0.25c2.99,1.63,5.97,3.26,8.98,4.92c-2.7,1.06-5.57,2.58-8.62,2.4c-4.61-0.27-9.18-1.18-13.77-1.82 c0.02-0.18,0.05-0.35,0.07-0.53c1.65,0.21,3.3,0.4,4.95,0.62c2.48,0.32,4.96,0.68,7.44,0.96c1.72,0.2,1.73,0.15,1.66-1.53 C189.99,152.13,190,151.79,190,151.2z"></path> <path d="M153.15,99.81c-0.72,0.16-1.31,0.22-1.85,0.42c-1.26,0.47-1.9,0.23-2.3-1.08c-0.21-0.69-0.26-1.42-0.57-2.15 c-0.17,0.7-0.34,1.4-0.51,2.1c-0.33,1.35-0.68,1.56-1.99,1.12c-0.32-0.11-0.63-0.29-0.87-0.4c1.27-3.02,2.5-5.96,3.8-9.05 C150.3,93.79,151.74,96.82,153.15,99.81z"></path> <path d="M158.44,107.38c-0.97,6.38-2.98,12.48-5.67,18.38C154.66,119.64,156.55,113.51,158.44,107.38z"></path> <path d="M145.45,125.79c-2.67-5.93-4.74-12.04-5.7-18.48C141.65,113.47,143.55,119.63,145.45,125.79z"></path> <path d="M129.22,113.66c2.58,4.84,5.17,9.68,7.75,14.52C133.69,123.73,130.98,118.97,129.22,113.66z"></path> <path d="M169,113.65c-0.8,3.4-5.61,12.42-7.75,14.52C163.83,123.33,166.41,118.49,169,113.65z"></path> <path d="M189.86,172.97c0.57-0.23,0.92-0.38,1.42-0.59c-1.56-1.47-3.06-2.88-4.55-4.29c0.12-0.13,0.23-0.26,0.35-0.38 c1.54,1.21,3.09,2.43,4.78,3.76c0.04-0.77,0.06-1.32,0.09-1.86c0.08-0.01,0.16-0.03,0.25-0.04c0.26,1.25,0.52,2.5,0.84,4.02 C191.89,173.37,190.98,173.19,189.86,172.97z"></path> <path d="M106.62,172.25c0.78,0.32,1.13,0.47,1.69,0.69c-1.06,0.23-1.93,0.42-3.1,0.67c0.29-1.47,0.54-2.75,0.79-4.02 c0.08,0.01,0.17,0.03,0.25,0.04c0.03,0.54,0.07,1.09,0.12,1.82c1.68-1.33,3.2-2.54,4.73-3.76c0.02,0.02,0.05,0.05,0.07,0.07 C109.72,169.21,108.26,170.64,106.62,172.25z"></path> <path d="M189.73,181.09"></path> <path d="M175.69,154.99c3.62,2.42,7.23,4.83,10.87,7.26C184.44,161.91,177.31,157.27,175.69,154.99z"></path> <path d="M172.44,137.28c4.23-2.54,8.13-4.88,12.1-7.27C183.35,131.79,175.9,136.31,172.44,137.28z"></path> <path d="M125.36,137.02c-4.29-1.6-8.22-3.88-11.65-6.98C117.6,132.37,121.48,134.7,125.36,137.02z"></path> <path d="M190.34,119.92c-0.65,1.24-1.22,2.35-1.79,3.44c-0.55-0.94-0.55-0.94-2.98-0.36c1-0.75,1.89-1.42,2.79-2.09 c-0.03-0.17-0.05-0.34-0.08-0.51c-0.98-0.13-1.96-0.26-2.93-0.38c0-0.03-0.01-0.07-0.01-0.1 C186.96,119.92,188.58,119.92,190.34,119.92z"></path> <path d="M122.71,155.25c-3.23,2.75-6.66,5.2-10.67,6.77c3.49-2.34,6.97-4.68,10.46-7.02 C122.57,155.08,122.64,155.16,122.71,155.25z"></path> <path d="M114.85,170.91c2.63-3.4,5.26-6.8,7.9-10.2C120.8,164.63,118.21,168.07,114.85,170.91z"></path> <path d="M183.34,170.88c-3.35-2.85-5.95-6.27-7.9-10.21C178.07,164.08,180.71,167.48,183.34,170.88z"></path> <path d="M112.96,120.03c-0.99,0.12-1.98,0.24-2.98,0.36c-0.05,0.17-0.1,0.34-0.14,0.51c0.91,0.68,1.82,1.37,2.73,2.06 c-0.93,0.27-2.19-1.41-2.89,0.46c-0.58-1.11-1.14-2.21-1.8-3.49c1.77,0,3.43,0,5.08,0C112.96,119.95,112.96,119.99,112.96,120.03z "></path> <path d="M185.8,140.09c-3.65,1.82-7.53,2.77-11.62,2.94C178.05,142.05,181.92,141.07,185.8,140.09z"></path> <path d="M171.55,127.48c2.39-3.09,4.78-6.18,7.17-9.26c-1.68,3.63-4.16,6.64-6.91,9.46C171.72,127.61,171.64,127.54,171.55,127.48 z"></path> <path d="M123.52,143.24c-3.91-0.42-7.67-1.45-11.24-3.18c3.77,0.95,7.55,1.91,11.32,2.86 C123.57,143.03,123.55,143.14,123.52,143.24z"></path> <path d="M119.32,118c2.54,3.27,4.92,6.35,7.46,9.62C124.74,126.47,120.11,120.5,119.32,118z"></path> <path d="M183.74,181.82c-0.48-1.08-0.83-1.87-1.19-2.66c0.05-0.04,0.09-0.08,0.14-0.12c0.49,0.63,0.99,1.27,1.6,2.05 c0.21-0.68,0.36-1.15,0.51-1.63c0.05,0,0.09,0,0.14,0.01c0,1.34,0,2.67,0,4.21c-1.15-0.74-2.22-1.43-3.3-2.12 c0.02-0.07,0.05-0.14,0.07-0.21C182.28,181.48,182.85,181.61,183.74,181.82z"></path> <path d="M192.23,158.02c-0.21-0.56-0.36-0.98-0.52-1.41c0.08-0.05,0.17-0.1,0.25-0.15c0.69,1.16,1.38,2.32,2.07,3.48 c-0.08,0.06-0.16,0.12-0.25,0.19c-1.15-0.68-2.26-1.41-3.45-2.01c-1.16-0.59-2.39-1.06-3.53-1.81 C188.57,156.86,190.32,157.41,192.23,158.02z"></path> <path d="M111.47,156.52c-1.24,0.55-2.5,1.04-3.71,1.66c-1.15,0.59-2.23,1.29-3.57,1.79c0.65-1.14,1.3-2.28,1.95-3.42 c0.1,0.04,0.19,0.09,0.29,0.13c-0.13,0.4-0.25,0.8-0.43,1.35c1.89-0.61,3.65-1.18,5.41-1.74 C111.43,156.36,111.45,156.44,111.47,156.52z"></path> <path d="M113.92,181.05c0.62-0.78,1.16-1.47,1.71-2.15c0.04,0.03,0.09,0.06,0.13,0.09c-0.39,0.86-0.78,1.72-1.27,2.8 c0.74-0.14,1.27-0.24,1.79-0.33c0.03,0.07,0.07,0.14,0.1,0.21c-0.99,0.65-1.98,1.31-3.12,2.07c0-1.53,0-2.86,0-4.61 C113.54,179.94,113.7,180.41,113.92,181.05z"></path> <path d="M175.43,149.41c3.41,0.4,6.82,0.81,10.26,1.22C184.46,151.28,177.6,150.59,175.43,149.41z"></path> <path d="M112.55,150.62c3.41-0.41,6.82-0.81,10.23-1.22c-3.31,1.33-6.77,1.47-10.22,1.56 C112.56,150.85,112.55,150.74,112.55,150.62z"></path> <path d="M104.83,144.82c1.47-0.37,2.55-0.65,3.76-0.96c-0.11,0.3-0.2,0.54-0.34,0.94c1.47,0.09,2.89,0.18,4.31,0.27 c0,0.05,0,0.1,0,0.14c-1.98,0.09-3.96,0.22-5.95,0.25C106.15,145.47,105.68,145.14,104.83,144.82z"></path> <path d="M185.67,145.06c1.39-0.08,2.78-0.16,4.29-0.25c-0.15-0.36-0.26-0.61-0.4-0.95c1.16,0.28,2.27,0.55,3.38,0.82 c-1.07,0.56-1.96,1.27-3.37,0.79c-1.19-0.41-2.59-0.21-3.9-0.28C185.67,145.15,185.67,145.1,185.67,145.06z"></path> <path d="M177.69,108.18c1.1-0.4,2.03-0.73,3.05-1.09c0,0.77,0,1.41,0,1.81c-1,0.46-1.89,0.87-2.8,1.29 C177.97,109.6,179.26,108.78,177.69,108.18z"></path> <path d="M117.49,109.24c0-0.68,0-1.36,0-2.14c0.98,0.35,1.88,0.67,2.95,1.06c-1.3,0.64-0.47,1.37-0.07,2.13 c-0.97-0.49-1.82-0.93-2.67-1.37C117.64,109.02,117.56,109.13,117.49,109.24z"></path> <path d="M149.07,110.01"></path> <path d="M167.32,100.69c0.8-0.64,1.6-1.28,2.58-2.06c0,1.61,0,3.02,0,4.5C169.15,102.22,169.62,99.95,167.32,100.69z"></path> <path d="M121.21,177.06c0.89-2.36,1.78-4.72,2.67-7.07c0.18,0.07,0.36,0.14,0.54,0.2c-0.9,2.37-1.8,4.73-2.71,7.1 C121.54,177.21,121.37,177.14,121.21,177.06z"></path> <path d="M128.28,98.59c1.03,0.84,1.84,1.48,2.96,2.4c-2.59-0.94-2.26,1.12-2.96,2.28C128.28,101.69,128.28,100.28,128.28,98.59z"></path> <path d="M176.5,177.29c-0.9-2.37-1.79-4.73-2.69-7.1c0.18-0.07,0.35-0.13,0.53-0.2c0.89,2.36,1.79,4.72,2.68,7.08 C176.84,177.15,176.67,177.22,176.5,177.29z"></path> <path d="M190.32,135.8c1.34-1.24,0.77-1.98-0.62-2.49c0.13-0.11,0.26-0.22,0.39-0.33c0.7,0.54,1.4,1.08,2.1,1.62 c-0.47,0.46-0.94,0.93-1.41,1.39C190.63,135.93,190.48,135.87,190.32,135.8z"></path> <path d="M107.43,135.99c-0.47-0.46-0.94-0.91-1.4-1.37c0.69-0.55,1.38-1.1,2.07-1.65c0.1,0.1,0.19,0.2,0.29,0.3 c-1.01,0.63-2.07,1.24-0.43,2.54C107.78,135.87,107.61,135.93,107.43,135.99z"></path> <path class="st15" d="M153.97,210.15c1.74-4.7,3.68-9.07,7.12-12.62c4.82-4.96,8.83-10.46,11.35-16.96 c0.21-0.55,0.39-1.11,0.61-1.73c1.61,2.11,1.26,4.38,0.7,6.58c-0.97,3.78-2.02,7.54-3.2,11.26c-0.32,1.02-1.04,2.1-1.89,2.75 c-4.67,3.58-9.44,7.03-14.18,10.52C154.39,210.02,154.27,210.04,153.97,210.15z"></path> <path class="st15" d="M143.96,210.14c-4.87-3.6-9.77-7.17-14.58-10.84c-0.75-0.57-1.41-1.53-1.68-2.44 c-1.27-4.38-2.43-8.79-3.54-13.22c-0.48-1.93-0.23-2.76,0.97-4.86c1.36,4.34,3.47,8.21,6.13,11.74c1.84,2.45,3.81,4.83,5.92,7.06 C140.56,201.17,142.48,205.49,143.96,210.14z"></path> <path class="st15" d="M139.21,145.24c1.95,0.49,4.12,1.48,5.48,3.73c1.33,2.21,2.2,4.6,2.41,7.17c0.07,0.89-0.1,1.84-0.38,2.7 c-0.36,1.1-2.3,1.59-3.16,0.82c-0.84-0.76-1.97-1.53-2.26-2.51c-0.98-3.32-3.88-3.75-6.44-4.72c-1.73-0.66-2.1-1.32-1.63-3.11 C133.89,146.84,136.01,145.25,139.21,145.24z"></path> <path class="st15" d="M159.01,145.24c3.35,0.02,5.6,1.83,6.07,4.47c0.26,1.44-0.14,2.12-1.5,2.65c-1.39,0.54-2.83,0.97-4.14,1.65 c-1.04,0.54-2.06,1.15-2.19,2.66c-0.09,1.14-2.75,3.04-3.81,3.2c-1.3,0.21-1.9-0.44-2.18-1.54c-0.15-0.59-0.25-1.23-0.19-1.83 c0.28-3.07,1.2-5.94,3.09-8.4C155.49,146.37,157.44,145.64,159.01,145.24z"></path> <path class="st15" d="M133.44,187.83c-4.83-5.92-7.39-12.64-7.08-20.38C129.9,173.82,131.84,180.76,133.44,187.83z"></path> <path class="st15" d="M171.97,167.25c0.2,7.9-2.35,14.63-7.09,20.68C164.68,185.41,169.54,170.35,171.97,167.25z"></path> <path class="st15" d="M161.73,140.26c0.3-0.56,0.61-1.12,0.9-1.69c0.33-0.63,0.77-1.01,1.46-0.53c0.61,0.43,1.27,0.88,0.67,1.81 c-0.48,0.73-0.89,1.5-1.32,2.22c-2.63-1.11-5.22-2.22-7.89-3.35c-0.17-1.84,2.18-4.26-1.07-5.79c1.54,0.43,3.55-0.15,4.15,1.67 c0.46,1.39,0.23,3.02,0.29,4.23c1.38-1.94,1.47-3.21,0.13-4.71C162.05,134.84,162.63,134.45,161.73,140.26z"></path> <path class="st15" d="M143.73,132.94c-3.23,1.51-0.95,3.86-1.08,5.78c-2.57,1.09-5.17,2.19-7.87,3.34c-0.36-0.59-0.73-1.33-1.21-2 c-0.7-0.96-0.22-1.55,0.57-2.04c0.91-0.56,1.23,0.15,1.56,0.79c0.28,0.54,0.59,1.06,0.98,1.75c-0.18-1.37-0.35-2.52-0.49-3.69 c-0.16-1.37,0.35-2.27,1.79-2.55c0.37-0.07,0.72-0.24,1.21-0.33c-2.31,1.92-0.12,3.46,0.09,4.97c0.08-1.39-0.16-3.04,0.33-4.44 C140.22,132.78,142.21,133.33,143.73,132.94z"></path> <path class="st15" d="M147.25,137.81c0.19-1.85,0.36-3.57,0.55-5.37c0.9,0,1.67,0,2.65,0c0.16,1.88,0.32,3.72,0.47,5.53 c-2.65,0.24-5.16,0.47-7.67,0.7c-0.44-3.65,0.18-6.84,4.16-6.07C146.13,134.03,146.07,135.34,147.25,137.81z"></path> <path class="st15" d="M154.98,138.8c-1.24-0.2-2.48-0.41-3.74-0.61c-0.16-1.89,1.76-3.89-0.5-5.5 C154.32,131.8,155.45,134.3,154.98,138.8z"></path> <path class="st15" d="M149.74,146.62c0.53-0.43,1.49-0.86,1.5-1.3c0.02-0.96-0.45-1.93-0.73-2.94c1.71,0.03,3.32,0.97,4.93,2.26 c-1.34,1.42-2.99,2.08-4.8,2.4c-0.27,0.05-0.6-0.27-0.9-0.42C149.74,146.6,149.74,146.62,149.74,146.62z"></path> <path d="M149.17,176.14c1.41,0,2.81,0.03,4.22-0.01c0.77-0.02,1.02,0.34,1.01,1.03c-0.04,1.62-0.85,2.7-2.29,3.39 c-0.94,0.45-1.83,1-2.75,1.49c-0.17,0.09-0.43,0.18-0.59,0.12c-2.1-0.78-4.07-1.74-4.82-4.1c-0.46-1.44-0.09-1.92,1.41-1.93 C146.62,176.13,147.9,176.13,149.17,176.14z"></path> <path d="M157.38,181.06c0.16,2.3-1.77,4.38-3.86,4.36c-0.59,0-1.18,0.21-1.77,0.25c-1.51,0.11-3.02,0.25-4.53,0.22 c-1.02-0.02-2.03-0.36-3.05-0.49c-1.75-0.23-3.31-2.06-3.45-4.43c1.17,1.08,2.21,1.97,3.17,2.93c0.6,0.6,1.14,0.79,1.95,0.37 c2.22-1.14,4.48-1.05,6.68,0.07c0.69,0.35,1.11,0.18,1.61-0.3C155.18,183.04,156.26,182.09,157.38,181.06z"></path> <path class="st16" d="M154.35,160.77c-0.38-0.42,1.2-2.47,1.28-2.59c0.38-0.54,0.66-0.77,0.66-0.77c0.95-1.07,1.91-1.43,2.44-1.57 c0.26-0.07,1.43-0.38,1.71,0.07c0.21,0.32-0.14,0.88-0.33,1.2c-0.62,1.01-1.49,1.54-1.97,1.83 C155.78,160.35,154.6,161.05,154.35,160.77z"></path> <path class="st17" d="M156.9,159.59c0.2-0.13,0.4-0.24,0.61-0.34c0.09-0.07,0.17-0.14,0.26-0.19c0.18-0.14,0.37-0.26,0.56-0.37 c0.02-0.07,0.04-0.14,0.04-0.22c0-0.65-0.53-1.18-1.19-1.18s-1.18,0.53-1.18,1.18C156,159.02,156.39,159.46,156.9,159.59z"></path> <path class="st16" d="M144.39,160.88c0.38-0.42-1.2-2.47-1.28-2.59c-0.38-0.54-0.66-0.77-0.66-0.77 c-0.95-1.07-1.91-1.43-2.44-1.57c-0.26-0.07-1.43-0.38-1.71,0.07c-0.21,0.32,0.14,0.88,0.33,1.2c0.62,1.01,1.49,1.54,1.97,1.83 C142.96,160.45,144.14,161.16,144.39,160.88z"></path> <path d="M151.62,144.66c0,0-1.08,0-2.4,0s-2.4,0-2.4,0s1.08,0,2.4,0S151.62,144.66,151.62,144.66z"></path> <circle class="st18" cx="149.22" cy="144.66" r="2.5"></circle> <circle class="st19" cx="149.22" cy="144.66" r="1.44"></circle> <circle class="st20" cx="149.22" cy="144.66" r="0.26"></circle> <circle class="st20" cx="157.19" cy="158.47" r="0.21"></circle> <path class="st17" d="M142.13,159.83c-0.2-0.13-0.4-0.24-0.61-0.34c-0.09-0.07-0.17-0.14-0.26-0.19 c-0.18-0.14-0.37-0.26-0.56-0.37c-0.02-0.07-0.04-0.14-0.04-0.22c0-0.65,0.53-1.18,1.19-1.18c0.65,0,1.18,0.53,1.18,1.18 C143.02,159.26,142.64,159.7,142.13,159.83z"></path> <circle class="st20" cx="141.84" cy="158.71" r="0.21"></circle> </g> <radialGradient id="SVGID_1_" cx="-293.52" cy="710.487" r="1.0966" gradientTransform="matrix(-1.025 2.05 3.6764 1.8382 -2770.2705 -545.0626)" gradientUnits="userSpaceOnUse"> <stop offset="0" style="stop-color:#3F87A8"></stop> <stop offset="1" style="stop-color:#334669"></stop> </radialGradient> <path class="st21" d="M144.48,160.92c0.36-0.41-1.23-2.52-1.34-2.67c-0.41-0.57-0.67-0.77-0.67-0.77 c-0.98-1.08-1.95-1.49-2.52-1.59c-0.26-0.05-1.44-0.36-1.75,0.05c-0.21,0.31,0.15,0.92,0.36,1.23c0.62,1.03,1.54,1.59,2,1.85 C142.99,160.51,144.22,161.23,144.48,160.92z"></path> <radialGradient id="SVGID_2_" cx="-296.6617" cy="713.9645" r="1.0504" gradientTransform="matrix(-1.025 2.05 3.6764 1.8382 -2770.2683 -545.1564)" gradientUnits="userSpaceOnUse"> <stop offset="0" style="stop-color:#3F87A8"></stop> <stop offset="1" style="stop-color:#334669"></stop> </radialGradient> <path class="st22" d="M154.39,160.71c-0.34-0.39,1.18-2.41,1.28-2.56c0.39-0.54,0.64-0.74,0.64-0.74c0.94-1.03,1.87-1.43,2.41-1.53 c0.25-0.05,1.38-0.34,1.67,0.05c0.2,0.3-0.15,0.89-0.34,1.18c-0.59,0.98-1.48,1.53-1.92,1.77 C155.82,160.32,154.64,161,154.39,160.71z"></path> <radialGradient id="SVGID_3_" cx="-293.5585" cy="1172.9775" r="1.1197" gradientTransform="matrix(-0.2752 0.709 0.7399 0.2872 -791.5171 29.7461)" gradientUnits="userSpaceOnUse"> <stop offset="0.5052" style="stop-color:#38698E"></stop> <stop offset="1" style="stop-color:#4A90AA"></stop> </radialGradient> <path class="st23" d="M156.85,159.7c0.21-0.16,0.42-0.26,0.63-0.37c0.1-0.05,0.16-0.16,0.26-0.21c0.21-0.16,0.37-0.26,0.58-0.37 c0-0.05,0.05-0.16,0.05-0.21c0-0.68-0.58-1.26-1.26-1.26c-0.68,0-1.26,0.58-1.26,1.26C155.91,159.07,156.33,159.54,156.85,159.7z"></path> <radialGradient id="SVGID_4_" cx="-286.0085" cy="1155.1694" r="1.1054" gradientTransform="matrix(-0.2752 0.7105 0.7403 0.2868 -792.0063 30.6501)" gradientUnits="userSpaceOnUse"> <stop offset="0.5052" style="stop-color:#38698E"></stop> <stop offset="1" style="stop-color:#4A90AA"></stop> </radialGradient> <path class="st24" d="M142.1,159.89c-0.28-0.03-0.62-0.36-0.62-0.36l-0.26-0.21l-0.57-0.36c0,0-0.05-0.16-0.05-0.21 c0-0.67,0.57-1.24,1.24-1.24s1.24,0.57,1.24,1.24C142.98,159.27,142.68,159.96,142.1,159.89z"></path> <path class="st25" d="M157.12,158.66c0.11,0,0.19-0.09,0.19-0.19s-0.09-0.19-0.19-0.19c-0.11,0-0.19,0.09-0.19,0.19 S157.01,158.66,157.12,158.66z"></path> <path class="st25" d="M141.84,158.87c0.11,0,0.19-0.09,0.19-0.19s-0.09-0.19-0.19-0.19s-0.19,0.09-0.19,0.19 S141.73,158.87,141.84,158.87z"></path> <g> <radialGradient id="SVGID_5_" cx="-215.0215" cy="782.8811" r="1.0941" gradientTransform="matrix(0 2.3429 2.3429 0 -1684.9619 648.428)" gradientUnits="userSpaceOnUse"> <stop offset="0.849" style="stop-color:#FBD846"></stop> <stop offset="1" style="stop-color:#FAC801"></stop> </radialGradient> <path class="st26" d="M149.22,147.23c1.42,0,2.56-1.15,2.56-2.56s-1.15-2.56-2.56-2.56s-2.56,1.15-2.56,2.56 S147.8,147.23,149.22,147.23z"></path> </g> <radialGradient id="SVGID_6_" cx="-172.8317" cy="913.1727" r="1.135" gradientTransform="matrix(0 1.3589 1.3589 0 -1091.6576 379.5169)" gradientUnits="userSpaceOnUse"> <stop offset="0.5521" style="stop-color:#2A2514"></stop> <stop offset="1" style="stop-color:#FBD846"></stop> </radialGradient> <path class="st27" d="M149.22,146.21c0.85,0,1.54-0.69,1.54-1.54s-0.69-1.54-1.54-1.54s-1.54,0.69-1.54,1.54 S148.36,146.21,149.22,146.21z"></path> <path class="st28" d="M149.24,144.91c0.14,0,0.25-0.11,0.25-0.25s-0.11-0.25-0.25-0.25c-0.14,0-0.25,0.11-0.25,0.25 S149.1,144.91,149.24,144.91z"></path> </g> <g id="Слой_4"> <g> <path class="st29" d="M153.07,295.44c5.36,8.65,24.82,15,23.49,23.34c-0.5,3.16-3.45,7.73-7.15,8.04 c4.46-1.34,5.59-7.98,3.75-11.09C167.25,305.76,157.81,307.55,153.07,295.44z"></path> <path class="st7" d="M180.46,324.1c-3.26,1.85-7.87,2.73-11.05,2.72c3.35,0.06,7.5-5.84,6.95-9.72 c-1.19-8.35-19.96-12.97-24.1-23.6c4.62,14.6,17.68,12.88,21.58,24.15c1.41,4.07-1.76,9.03-4.43,9.18 c-3.57,0.2-5.74,0.02-7.86-2.19c2.79-6.54-19.47-30.67-22.85-34.99c-4.64-5.93-4.06-13.76-3.62-16.53 c0.35-2.2,2.83-5.62,3.29-8.35c0.65-3.81,1-5.26,2.45-7.07c1.9-2.7,3.78-6.9,5.82-8.39h4.9c2.19,1.27,5,6.82,6.44,8.39 c1.53,1.69,2.19,2.84,2.86,7.01c0.41,2.54,2.83,6.5,3.1,8.4c0.44,3.09,1.25,12.08-3.55,16.4c-1.13,1.02-3.05,1.7-4.35,2.5 c10.82,14.41,26.35,16,28.1,24.1C184.55,317.9,184.59,321.76,180.46,324.1z"></path> <path d="M141.76,262.53c0.8-1.92,0.4-2.73,0.1-2.83c-0.3-0.1-1.54,1.59-1.7,2.2c-0.27,1.02,0.01,1.63,0.3,1.7 c0.22,0.05,1.25,0.4,1.9-3.3c0.15-0.84,0.44-3.36,2.9-2.4c-1.8-0.52-2.21,0.46-2.7,2.81c-0.14,0.69-0.57,3.29-2.1,3.29 c-0.35,0-1.18-0.97-0.35-2.58c0.71-1.39,1.62-2.07,1.75-2.02C142.78,259.77,142.16,261.93,141.76,262.53z"></path> <path d="M156.47,259.4c0.13-0.05,1.04,0.63,1.75,2.02c0.83,1.61,0,2.58-0.35,2.58c-1.53,0-1.96-2.59-2.1-3.29 c-0.49-2.36-0.91-3.33-2.7-2.81c2.46-0.96,2.75,1.56,2.9,2.4c0.65,3.7,1.68,3.35,1.9,3.3c0.29-0.07,0.57-0.68,0.3-1.7 c-0.16-0.61-1.4-2.3-1.7-2.2c-0.3,0.1-0.7,0.91,0.1,2.83C156.17,261.93,155.54,259.77,156.47,259.4z"></path> <path d="M147.56,251.8c0.68,11.26-12.23,21.91-9.4,31.2c1.54,5.05,10.45,2.09,14.91,12.44c-2.7-9.81-9.08-7.34-11.92-13.15 C137.79,275.44,149.38,265.88,147.56,251.8z"></path> <path d="M147.65,271.65c-4.74,1.31-7.69,12.1,1.37,13.8c9.84,1.85,15.06-2.59,15.13-6.8c0.07-4.08-0.13-5.56-1-7.96 c0.5,7.2-0.24,8.63-1.41,10.05c-1.5,1.82-5.04,2.44-5.24,2.24c2.12-0.38,5.29-4.48,3.39-8.67c-1.45-3.18-9.66-11.29-9.4-22.5 c-2.12,13.99,7.31,21.15,7.5,24.5c0.34,5.85-7.03,5.55-8.11,5.17c-4.16-1.48-3.99-5.89-1.13-6.91c1.15-0.41,4.63,0.97,2.72,4.1 C155.99,274.68,151.15,270.68,147.65,271.65z"></path> <path class="st30" d="M148.25,249.2c-0.9-0.9-2.1-2.4-2.3-4.3c-0.2-2.7,1.8-4.1,2.7-6.7c0.6-1.9,0.8-4.9-1.6-9.5 c0.5,0.4,1.5,1.3,2.1,2.6c0.6,1.2,0.7,2.3,0.8,3c0.1-0.7,0.3-1.6,0.3-2.6c0.1-1.1-0.1-2.1-0.1-3c1.8,4.8,1.3,7.9,0.6,9.9 c-1,2.5-2.9,4.1-2.7,6.7c0.1,1.8,1.3,3.1,2.1,3.9C149.55,249.2,148.85,249.2,148.25,249.2z"></path> </g> <g> <path class="st31" d="M125.23,488.82l1.68,0.4c0,0-2.48,13.19,9.48,16.36C121.41,503.48,125.23,488.82,125.23,488.82z"></path> <path class="st7" d="M137.36,464.4c-12.72,2.48-18.92,18.33-17.8,29.81c0.62,6.31,10.1,19.94,29.55,20.12 c25.6,0.23,48.75,12.28,48.75,12.28s-25.06-18.14-48.75-19.57c-16.24-0.98-22.99-3.1-23.91-11.91 c-0.79-7.57,1.38-21.18,12.06-21.72C137.35,470.65,137.35,468.47,137.36,464.4z"></path> <path class="st7" d="M137.36,505.77c-10.54-4.64-7.07-15.84-7.07-15.84l-3.38-0.7C126.91,489.23,123.31,503.52,137.36,505.77z"></path> <path class="st31" d="M132.98,315.45c-5.74,4.25-17.84,11.06-19.8,31.61c-3.5,36.62,77.06,51.53,77.93,80.53 c0.51,17.05-29.54,27.76-29.54,27.76s32.6-6.56,33.98-28.2c2.02-31.74-73.52-39.43-79-80.45 C115.51,339.03,127.24,319.71,132.98,315.45z"></path> <path class="st7" d="M132.06,316.1c-16.55,11.76-30.28,18.92-29.1,40.2c1.8,32.55,68.57,54.36,69.67,70.34 c0.54,7.83-7.12,12.54-11.05,12.57c0.04,8.41-0.03,16.14-0.03,16.14s28.94-8.48,29.54-27.76c0.84-26.67-72.15-41.91-77.16-73.76 C112.65,345.59,112.71,330.57,132.06,316.1z"></path> <path class="st7" d="M132.06,316.1c-1.2,0.51-1.38,3.91-0.13,5.35c2.07,0.53,3.74,0.93,5.43,1.25c-0.01,1.23-0.01,1.49,0,2.93 c-10.9,5.61-11.69,16.4-11.7,20.47c-0.11,28.75,74.04,47.72,76.51,73.5c2.71,28.3-40.62,35.75-40.62,35.75s38.35-9.34,33.59-32.75 c-4.97-24.42-75.2-40.42-78.48-72.75C115.2,335.5,126.65,320.21,132.06,316.1z"></path> <path class="st7" d="M137.36,440.3c-3.5,0.48-36.69,8.23-36.64,27.01c0.07,31.67,87.38,30.05,90.39,8.28 c2.74-19.82-24.83-16.69-29.55-16.3c7.8,0.6,18.88,4.85,18.36,12.27c-1.17,16.37-67.8,10.06-67.78-7.16 C112.15,451.62,128.91,442.32,137.36,440.3z"></path> <path class="st7" d="M137.44,440.56c-4.76,1.35-22.03,10.97-22.03,22.71c0,14.74,60.03,22.79,61.75,7.38 c1.08-9.59-15.61-11.36-15.61-11.36v12.67c0,0,14.28-0.8,12.27,1.36c-4.59,4.94-44.95,3.01-49.24-7.68 c-2.24-5.58,10.49-10.09,12.76-9.41C137.33,453.85,137.15,440.65,137.44,440.56z"></path> <path class="st31" d="M137.42,440.42c-14.28,3.69-26.31,13.88-25.53,24.85c1.18,16.58,65.33,22.67,67.93,7.02 c0.9-5.45-4.55-11.76-18.26-13c15.44,3,15.47,8.65,15.44,10.97c-0.17,15.38-61.41,8.36-61.41-7.03 C115.59,461.43,116.07,450.16,137.42,440.42z"></path> </g> </g> </svg> 